G04 EAGLE Gerber RS-274X export*
G75*
%MOMM*%
%FSLAX34Y34*%
%LPD*%
%INBottom Copper*%
%IPPOS*%
%AMOC8*
5,1,8,0,0,1.08239X$1,22.5*%
G01*
G04 Define Apertures*
%ADD10C,0.150000*%
%ADD11C,0.452400*%
%ADD12C,0.502400*%
%ADD13C,0.300000*%
%ADD14C,0.152400*%
G36*
X1644773Y-829178D02*
X1644476Y-829238D01*
X904524Y-829238D01*
X904249Y-829187D01*
X903994Y-829023D01*
X903822Y-828773D01*
X903762Y-828476D01*
X903762Y-729856D01*
X902144Y-728238D01*
X716858Y-728238D01*
X716595Y-728191D01*
X716337Y-728032D01*
X716162Y-727784D01*
X716096Y-727488D01*
X716152Y-727190D01*
X716320Y-726937D01*
X750591Y-692666D01*
X750833Y-692503D01*
X751130Y-692443D01*
X815217Y-692443D01*
X820407Y-687253D01*
X820648Y-687090D01*
X820945Y-687030D01*
X822357Y-687030D01*
X822643Y-687085D01*
X822896Y-687253D01*
X845398Y-709755D01*
X1013964Y-709755D01*
X1069707Y-654013D01*
X1069948Y-653850D01*
X1070245Y-653790D01*
X1072068Y-653790D01*
X1074137Y-651721D01*
X1074137Y-648795D01*
X1072068Y-646726D01*
X1069142Y-646726D01*
X1067073Y-648795D01*
X1067073Y-650617D01*
X1067017Y-650903D01*
X1066850Y-651156D01*
X1016467Y-701539D01*
X1016236Y-701697D01*
X1015940Y-701762D01*
X1015642Y-701707D01*
X1015389Y-701539D01*
X1013206Y-699356D01*
X1010280Y-699356D01*
X1008991Y-700644D01*
X1008749Y-700807D01*
X1008452Y-700868D01*
X876557Y-700868D01*
X876294Y-700821D01*
X876036Y-700661D01*
X875860Y-700414D01*
X875795Y-700118D01*
X875851Y-699820D01*
X876018Y-699567D01*
X876082Y-699503D01*
X876082Y-697680D01*
X876138Y-697394D01*
X876305Y-697142D01*
X889657Y-683790D01*
X889898Y-683627D01*
X890195Y-683567D01*
X892018Y-683567D01*
X894087Y-681498D01*
X894087Y-678572D01*
X892018Y-676503D01*
X889092Y-676503D01*
X887023Y-678572D01*
X887023Y-680395D01*
X886967Y-680681D01*
X886800Y-680933D01*
X877274Y-690459D01*
X877044Y-690617D01*
X876748Y-690682D01*
X876449Y-690627D01*
X876197Y-690459D01*
X874793Y-689056D01*
X874630Y-688814D01*
X874570Y-688517D01*
X874570Y-632081D01*
X874626Y-631795D01*
X874793Y-631542D01*
X876082Y-630253D01*
X876082Y-627327D01*
X874013Y-625258D01*
X871087Y-625258D01*
X869018Y-627327D01*
X869018Y-630253D01*
X870307Y-631542D01*
X870470Y-631783D01*
X870530Y-632081D01*
X870530Y-688517D01*
X870474Y-688803D01*
X870307Y-689056D01*
X869018Y-690345D01*
X869018Y-693271D01*
X870132Y-694385D01*
X870290Y-694615D01*
X870356Y-694912D01*
X870300Y-695210D01*
X870132Y-695463D01*
X868903Y-696692D01*
X868673Y-696850D01*
X868377Y-696915D01*
X868079Y-696859D01*
X867826Y-696692D01*
X864312Y-693178D01*
X864159Y-692958D01*
X864089Y-692663D01*
X864140Y-692364D01*
X864304Y-692109D01*
X864554Y-691937D01*
X864851Y-691877D01*
X865011Y-691877D01*
X867080Y-689808D01*
X867080Y-686882D01*
X865791Y-685593D01*
X865628Y-685352D01*
X865568Y-685054D01*
X865568Y-647343D01*
X834063Y-615838D01*
X833900Y-615597D01*
X833840Y-615300D01*
X833840Y-613477D01*
X831771Y-611408D01*
X828845Y-611408D01*
X826661Y-613592D01*
X826430Y-613750D01*
X826134Y-613815D01*
X825836Y-613759D01*
X825583Y-613592D01*
X806015Y-594023D01*
X805862Y-593804D01*
X805792Y-593509D01*
X805843Y-593210D01*
X806007Y-592954D01*
X806257Y-592783D01*
X806554Y-592723D01*
X1344375Y-592723D01*
X1344661Y-592778D01*
X1344914Y-592946D01*
X1445103Y-693135D01*
X1471734Y-693135D01*
X1472020Y-693191D01*
X1472273Y-693358D01*
X1473562Y-694647D01*
X1476488Y-694647D01*
X1478557Y-692578D01*
X1478557Y-689652D01*
X1476488Y-687583D01*
X1473562Y-687583D01*
X1472273Y-688872D01*
X1472032Y-689035D01*
X1471734Y-689095D01*
X1447092Y-689095D01*
X1446806Y-689039D01*
X1446554Y-688872D01*
X1443808Y-686126D01*
X1443655Y-685906D01*
X1443585Y-685611D01*
X1443636Y-685312D01*
X1443799Y-685057D01*
X1444049Y-684885D01*
X1444346Y-684825D01*
X1494587Y-684825D01*
X1494873Y-684881D01*
X1495126Y-685048D01*
X1496415Y-686337D01*
X1499341Y-686337D01*
X1501410Y-684268D01*
X1501410Y-682445D01*
X1501465Y-682159D01*
X1501633Y-681907D01*
X1507696Y-675843D01*
X1507926Y-675685D01*
X1508222Y-675620D01*
X1508521Y-675676D01*
X1508773Y-675843D01*
X1510957Y-678027D01*
X1513883Y-678027D01*
X1515952Y-675958D01*
X1515952Y-674135D01*
X1516008Y-673849D01*
X1516175Y-673597D01*
X1552506Y-637266D01*
X1552748Y-637103D01*
X1553045Y-637043D01*
X1576302Y-637043D01*
X1576588Y-637098D01*
X1576841Y-637266D01*
X1578130Y-638555D01*
X1581056Y-638555D01*
X1583125Y-636486D01*
X1583125Y-633560D01*
X1581056Y-631491D01*
X1578347Y-631491D01*
X1578072Y-631439D01*
X1577816Y-631276D01*
X1577645Y-631026D01*
X1577585Y-630729D01*
X1577585Y-628020D01*
X1575516Y-625951D01*
X1572590Y-625951D01*
X1571301Y-627239D01*
X1571059Y-627402D01*
X1570762Y-627463D01*
X1550363Y-627463D01*
X1501333Y-676493D01*
X1501113Y-676646D01*
X1500818Y-676716D01*
X1500519Y-676665D01*
X1500264Y-676502D01*
X1500092Y-676251D01*
X1500032Y-675954D01*
X1500032Y-673158D01*
X1494842Y-667968D01*
X1486158Y-667968D01*
X1485382Y-668745D01*
X1485140Y-668908D01*
X1484843Y-668968D01*
X1464544Y-668968D01*
X1464269Y-668917D01*
X1464014Y-668753D01*
X1463842Y-668503D01*
X1463782Y-668206D01*
X1463782Y-666433D01*
X1462255Y-664907D01*
X1462092Y-664665D01*
X1462032Y-664368D01*
X1462032Y-644158D01*
X1451255Y-633382D01*
X1451092Y-633140D01*
X1451032Y-632843D01*
X1451032Y-448158D01*
X1435842Y-432968D01*
X1378157Y-432968D01*
X1377871Y-432912D01*
X1377619Y-432745D01*
X1346255Y-401382D01*
X1346092Y-401140D01*
X1346032Y-400843D01*
X1346032Y-228158D01*
X1341842Y-223968D01*
X1315632Y-223968D01*
X1315346Y-223912D01*
X1315093Y-223745D01*
X1313567Y-222218D01*
X1310433Y-222218D01*
X1308218Y-224433D01*
X1308218Y-227567D01*
X1310433Y-229782D01*
X1313567Y-229782D01*
X1315093Y-228255D01*
X1315335Y-228092D01*
X1315632Y-228032D01*
X1339843Y-228032D01*
X1340129Y-228088D01*
X1340382Y-228255D01*
X1341745Y-229619D01*
X1341908Y-229860D01*
X1341968Y-230157D01*
X1341968Y-402842D01*
X1376158Y-437032D01*
X1433843Y-437032D01*
X1434129Y-437088D01*
X1434382Y-437255D01*
X1446745Y-449619D01*
X1446908Y-449860D01*
X1446968Y-450157D01*
X1446968Y-634842D01*
X1457745Y-645619D01*
X1457908Y-645860D01*
X1457968Y-646157D01*
X1457968Y-664368D01*
X1457912Y-664654D01*
X1457745Y-664907D01*
X1456218Y-666433D01*
X1456218Y-669567D01*
X1457850Y-671199D01*
X1458008Y-671429D01*
X1458073Y-671725D01*
X1458018Y-672023D01*
X1457850Y-672276D01*
X1456382Y-673745D01*
X1456140Y-673908D01*
X1455843Y-673968D01*
X1452157Y-673968D01*
X1451871Y-673912D01*
X1451619Y-673745D01*
X1442255Y-664382D01*
X1442092Y-664140D01*
X1442032Y-663843D01*
X1442032Y-599158D01*
X1314255Y-471382D01*
X1314092Y-471140D01*
X1314032Y-470843D01*
X1314032Y-320632D01*
X1314088Y-320346D01*
X1314255Y-320093D01*
X1315782Y-318567D01*
X1315782Y-315433D01*
X1313567Y-313218D01*
X1310433Y-313218D01*
X1308218Y-315433D01*
X1308218Y-318567D01*
X1309745Y-320093D01*
X1309908Y-320335D01*
X1309968Y-320632D01*
X1309968Y-472842D01*
X1437745Y-600619D01*
X1437908Y-600860D01*
X1437968Y-601157D01*
X1437968Y-665842D01*
X1450158Y-678032D01*
X1457842Y-678032D01*
X1461075Y-674799D01*
X1461316Y-674636D01*
X1461613Y-674576D01*
X1462724Y-674576D01*
X1464045Y-673255D01*
X1464286Y-673092D01*
X1464584Y-673032D01*
X1486842Y-673032D01*
X1487619Y-672255D01*
X1487860Y-672092D01*
X1488157Y-672032D01*
X1492843Y-672032D01*
X1493129Y-672088D01*
X1493382Y-672255D01*
X1495745Y-674619D01*
X1495908Y-674860D01*
X1495968Y-675157D01*
X1495968Y-679404D01*
X1495912Y-679690D01*
X1495745Y-679943D01*
X1495126Y-680562D01*
X1494884Y-680725D01*
X1494587Y-680785D01*
X1442937Y-680785D01*
X1442651Y-680729D01*
X1442399Y-680562D01*
X1119224Y-357388D01*
X1096711Y-357388D01*
X1096448Y-357341D01*
X1096190Y-357181D01*
X1096015Y-356934D01*
X1095949Y-356638D01*
X1096005Y-356340D01*
X1096173Y-356087D01*
X1130647Y-321613D01*
X1130888Y-321450D01*
X1131185Y-321390D01*
X1133701Y-321390D01*
X1134989Y-320101D01*
X1135231Y-319938D01*
X1135528Y-319878D01*
X1212047Y-319878D01*
X1212333Y-319933D01*
X1212586Y-320101D01*
X1213875Y-321390D01*
X1216801Y-321390D01*
X1218870Y-319321D01*
X1218870Y-316395D01*
X1216801Y-314326D01*
X1213875Y-314326D01*
X1212586Y-315614D01*
X1212344Y-315777D01*
X1212047Y-315838D01*
X1135528Y-315838D01*
X1135242Y-315782D01*
X1134989Y-315614D01*
X1133701Y-314326D01*
X1130775Y-314326D01*
X1128706Y-316395D01*
X1128706Y-317525D01*
X1128650Y-317811D01*
X1128482Y-318063D01*
X1094229Y-352317D01*
X1093987Y-352480D01*
X1093690Y-352540D01*
X1091208Y-352540D01*
X1090922Y-352484D01*
X1090669Y-352317D01*
X1089381Y-351028D01*
X1086455Y-351028D01*
X1084386Y-353097D01*
X1084386Y-356023D01*
X1084449Y-356087D01*
X1084602Y-356306D01*
X1084672Y-356601D01*
X1084621Y-356900D01*
X1084458Y-357156D01*
X1084208Y-357327D01*
X1083910Y-357388D01*
X957495Y-357388D01*
X957209Y-357332D01*
X956956Y-357164D01*
X902472Y-302680D01*
X821826Y-302680D01*
X821540Y-302624D01*
X821287Y-302457D01*
X819998Y-301168D01*
X818175Y-301168D01*
X817889Y-301112D01*
X817637Y-300945D01*
X741812Y-225120D01*
X302478Y-225120D01*
X269461Y-258137D01*
X269220Y-258300D01*
X268923Y-258360D01*
X196498Y-258360D01*
X196212Y-258304D01*
X195959Y-258137D01*
X194556Y-256733D01*
X194398Y-256503D01*
X194333Y-256207D01*
X194388Y-255909D01*
X194556Y-255656D01*
X231216Y-218996D01*
X231458Y-218833D01*
X231755Y-218773D01*
X723142Y-218773D01*
X723428Y-218828D01*
X723681Y-218996D01*
X724970Y-220285D01*
X727896Y-220285D01*
X729965Y-218216D01*
X729965Y-215290D01*
X729901Y-215226D01*
X729748Y-215006D01*
X729678Y-214711D01*
X729729Y-214412D01*
X729892Y-214157D01*
X730142Y-213985D01*
X730440Y-213925D01*
X777157Y-213925D01*
X777443Y-213981D01*
X777696Y-214148D01*
X778985Y-215437D01*
X781911Y-215437D01*
X783980Y-213368D01*
X783980Y-210442D01*
X781911Y-208373D01*
X778985Y-208373D01*
X777696Y-209662D01*
X777454Y-209825D01*
X777157Y-209885D01*
X204359Y-209885D01*
X204096Y-209838D01*
X203838Y-209679D01*
X203662Y-209431D01*
X203597Y-209135D01*
X203653Y-208837D01*
X203820Y-208584D01*
X203838Y-208567D01*
X203838Y-205433D01*
X201623Y-203218D01*
X198490Y-203218D01*
X196274Y-205433D01*
X196274Y-208567D01*
X196292Y-208584D01*
X196445Y-208804D01*
X196515Y-209099D01*
X196464Y-209398D01*
X196300Y-209653D01*
X196050Y-209825D01*
X195753Y-209885D01*
X188188Y-209885D01*
X187902Y-209829D01*
X187649Y-209662D01*
X186246Y-208258D01*
X186088Y-208028D01*
X186023Y-207732D01*
X186078Y-207434D01*
X186246Y-207181D01*
X204901Y-188526D01*
X205143Y-188363D01*
X205440Y-188303D01*
X991832Y-188303D01*
X992118Y-188358D01*
X992371Y-188526D01*
X993660Y-189815D01*
X996586Y-189815D01*
X998655Y-187746D01*
X998655Y-184820D01*
X998591Y-184756D01*
X998438Y-184536D01*
X998368Y-184241D01*
X998419Y-183942D01*
X998582Y-183687D01*
X998832Y-183515D01*
X999130Y-183455D01*
X1054218Y-183455D01*
X1054504Y-183511D01*
X1054756Y-183678D01*
X1168796Y-297718D01*
X1322489Y-297718D01*
X1322775Y-297773D01*
X1323028Y-297941D01*
X1324317Y-299230D01*
X1327243Y-299230D01*
X1329312Y-297161D01*
X1329312Y-294235D01*
X1327243Y-292166D01*
X1324317Y-292166D01*
X1323028Y-293454D01*
X1322786Y-293617D01*
X1322489Y-293678D01*
X1170785Y-293678D01*
X1170499Y-293622D01*
X1170246Y-293454D01*
X1056207Y-179415D01*
X204143Y-179415D01*
X114320Y-269238D01*
X114320Y-276076D01*
X114273Y-276339D01*
X114114Y-276597D01*
X113866Y-276773D01*
X113570Y-276838D01*
X113272Y-276782D01*
X113019Y-276615D01*
X111623Y-275218D01*
X108490Y-275218D01*
X106274Y-277433D01*
X106274Y-280567D01*
X108490Y-282782D01*
X111623Y-282782D01*
X113019Y-281385D01*
X113239Y-281232D01*
X113534Y-281163D01*
X113833Y-281214D01*
X114088Y-281377D01*
X114260Y-281627D01*
X114320Y-281924D01*
X114320Y-294076D01*
X114273Y-294339D01*
X114114Y-294597D01*
X113866Y-294773D01*
X113570Y-294838D01*
X113272Y-294782D01*
X113019Y-294615D01*
X111623Y-293218D01*
X108490Y-293218D01*
X106274Y-295433D01*
X106274Y-298567D01*
X108490Y-300782D01*
X111623Y-300782D01*
X113019Y-299385D01*
X113239Y-299232D01*
X113534Y-299163D01*
X113833Y-299214D01*
X114088Y-299377D01*
X114260Y-299627D01*
X114320Y-299924D01*
X114320Y-320107D01*
X114264Y-320393D01*
X114097Y-320646D01*
X112808Y-321935D01*
X112808Y-324861D01*
X114877Y-326930D01*
X117021Y-326930D01*
X117295Y-326981D01*
X117551Y-327144D01*
X117722Y-327394D01*
X117783Y-327692D01*
X117783Y-354704D01*
X120895Y-357817D01*
X121058Y-358058D01*
X121118Y-358355D01*
X121118Y-360178D01*
X121182Y-360242D01*
X121335Y-360461D01*
X121405Y-360756D01*
X121354Y-361055D01*
X121190Y-361311D01*
X120940Y-361482D01*
X120643Y-361543D01*
X111321Y-361543D01*
X111035Y-361487D01*
X110782Y-361319D01*
X109493Y-360031D01*
X106567Y-360031D01*
X104498Y-362100D01*
X104498Y-365026D01*
X104562Y-365089D01*
X104715Y-365309D01*
X104785Y-365604D01*
X104734Y-365903D01*
X104570Y-366158D01*
X104320Y-366330D01*
X104023Y-366390D01*
X52482Y-366390D01*
X52219Y-366343D01*
X51961Y-366184D01*
X51785Y-365936D01*
X51720Y-365640D01*
X51776Y-365342D01*
X51943Y-365089D01*
X52007Y-365026D01*
X52007Y-362100D01*
X50718Y-360811D01*
X50555Y-360569D01*
X50495Y-360272D01*
X50495Y-320395D01*
X50551Y-320109D01*
X50718Y-319856D01*
X434833Y64258D01*
X434833Y167064D01*
X434888Y167350D01*
X435056Y167603D01*
X436345Y168892D01*
X436345Y170022D01*
X436400Y170308D01*
X436568Y170561D01*
X517911Y251904D01*
X518153Y252067D01*
X518450Y252128D01*
X612342Y252128D01*
X612628Y252072D01*
X612881Y251904D01*
X614170Y250616D01*
X615992Y250616D01*
X616278Y250560D01*
X616531Y250392D01*
X618110Y248813D01*
X618273Y248572D01*
X618333Y248275D01*
X618333Y246452D01*
X620402Y244383D01*
X623328Y244383D01*
X625397Y246452D01*
X625397Y249378D01*
X623328Y251447D01*
X621505Y251447D01*
X621219Y251503D01*
X620967Y251670D01*
X619388Y253249D01*
X619225Y253491D01*
X619165Y253788D01*
X619165Y255611D01*
X617096Y257680D01*
X614170Y257680D01*
X612881Y256391D01*
X612639Y256228D01*
X612342Y256168D01*
X516461Y256168D01*
X434403Y174110D01*
X434162Y173947D01*
X433865Y173887D01*
X431350Y173887D01*
X429208Y171746D01*
X428989Y171593D01*
X428694Y171523D01*
X428395Y171574D01*
X428139Y171737D01*
X427968Y171987D01*
X427908Y172285D01*
X427908Y242363D01*
X427959Y242638D01*
X428122Y242893D01*
X428372Y243065D01*
X428670Y243125D01*
X462762Y243125D01*
X463048Y243069D01*
X463301Y242902D01*
X464590Y241613D01*
X467516Y241613D01*
X469585Y243682D01*
X469585Y246608D01*
X467516Y248677D01*
X464590Y248677D01*
X463301Y247388D01*
X463059Y247225D01*
X462762Y247165D01*
X422885Y247165D01*
X422599Y247221D01*
X422346Y247388D01*
X406790Y262944D01*
X406627Y263186D01*
X406567Y263483D01*
X406567Y264613D01*
X404498Y266682D01*
X401572Y266682D01*
X399503Y264613D01*
X399503Y262790D01*
X399447Y262504D01*
X399280Y262252D01*
X390776Y253748D01*
X390534Y253585D01*
X390237Y253525D01*
X388415Y253525D01*
X386346Y251456D01*
X386346Y248530D01*
X388415Y246461D01*
X391341Y246461D01*
X393410Y248530D01*
X393410Y250352D01*
X393465Y250638D01*
X393633Y250891D01*
X402137Y259395D01*
X402378Y259558D01*
X402675Y259618D01*
X404087Y259618D01*
X404373Y259562D01*
X404626Y259395D01*
X420896Y243125D01*
X423106Y243125D01*
X423380Y243074D01*
X423636Y242910D01*
X423807Y242660D01*
X423868Y242363D01*
X423868Y148740D01*
X423821Y148476D01*
X423661Y148218D01*
X423414Y148043D01*
X423118Y147978D01*
X422820Y148033D01*
X422567Y148201D01*
X422503Y148265D01*
X419577Y148265D01*
X418288Y146976D01*
X418047Y146813D01*
X417749Y146753D01*
X150064Y146753D01*
X149801Y146799D01*
X149542Y146959D01*
X149367Y147206D01*
X149302Y147502D01*
X149358Y147800D01*
X149525Y148053D01*
X168072Y166600D01*
X168313Y166763D01*
X168610Y166823D01*
X170433Y166823D01*
X172502Y168892D01*
X172502Y171818D01*
X172438Y171882D01*
X172285Y172101D01*
X172216Y172396D01*
X172266Y172695D01*
X172430Y172951D01*
X172680Y173122D01*
X172977Y173183D01*
X241854Y173183D01*
X242140Y173127D01*
X242393Y172959D01*
X243682Y171671D01*
X246608Y171671D01*
X248677Y173740D01*
X248677Y176666D01*
X246608Y178735D01*
X243682Y178735D01*
X242393Y177446D01*
X242152Y177283D01*
X241854Y177223D01*
X121043Y177223D01*
X4213Y60392D01*
X4213Y57998D01*
X4157Y57712D01*
X3989Y57459D01*
X2701Y56171D01*
X2701Y53245D01*
X4770Y51176D01*
X7696Y51176D01*
X7759Y51239D01*
X7979Y51392D01*
X8274Y51462D01*
X8573Y51411D01*
X8828Y51248D01*
X9000Y50998D01*
X9060Y50700D01*
X9060Y37855D01*
X9004Y37569D01*
X8837Y37316D01*
X2135Y30614D01*
X2135Y-186427D01*
X9645Y-193937D01*
X9798Y-194157D01*
X9868Y-194452D01*
X9817Y-194751D01*
X9654Y-195006D01*
X9404Y-195178D01*
X9107Y-195238D01*
X-50476Y-195238D01*
X-50751Y-195187D01*
X-51006Y-195023D01*
X-51178Y-194773D01*
X-51238Y-194476D01*
X-51238Y276238D01*
X-51187Y276513D01*
X-51023Y276768D01*
X-50773Y276940D01*
X-50476Y277000D01*
X158912Y277000D01*
X159017Y277025D01*
X159094Y277080D01*
X159100Y277072D01*
X159256Y277178D01*
X159554Y277238D01*
X160476Y277238D01*
X160751Y277187D01*
X161006Y277023D01*
X161178Y276773D01*
X161238Y276476D01*
X161238Y269856D01*
X162856Y268238D01*
X638144Y268238D01*
X639762Y269856D01*
X639762Y276476D01*
X639813Y276751D01*
X639977Y277006D01*
X640227Y277178D01*
X640524Y277238D01*
X864476Y277238D01*
X864751Y277187D01*
X865006Y277023D01*
X865178Y276773D01*
X865238Y276476D01*
X865238Y-161144D01*
X866856Y-162762D01*
X1644476Y-162762D01*
X1644751Y-162813D01*
X1645006Y-162977D01*
X1645178Y-163227D01*
X1645238Y-163524D01*
X1645238Y-828476D01*
X1645187Y-828751D01*
X1645023Y-829006D01*
X1644773Y-829178D01*
G37*
%LPC*%
G36*
X176433Y205218D02*
X179567Y205218D01*
X181782Y207433D01*
X181782Y210567D01*
X179567Y212782D01*
X178451Y212782D01*
X178165Y212838D01*
X177912Y213005D01*
X159275Y231642D01*
X159112Y231884D01*
X159052Y232181D01*
X159052Y272147D01*
X157429Y273770D01*
X153894Y273770D01*
X153608Y273826D01*
X153355Y273993D01*
X152567Y274782D01*
X149433Y274782D01*
X147218Y272567D01*
X147218Y269433D01*
X149433Y267218D01*
X152750Y267218D01*
X153025Y267167D01*
X153280Y267003D01*
X153452Y266753D01*
X153512Y266456D01*
X153512Y229571D01*
X173995Y209088D01*
X174158Y208846D01*
X174218Y208549D01*
X174218Y207433D01*
X176433Y205218D01*
G37*
G36*
X1156397Y-266682D02*
X1159323Y-266682D01*
X1161392Y-264613D01*
X1161392Y-262790D01*
X1161448Y-262504D01*
X1161615Y-262252D01*
X1195198Y-228669D01*
X1195198Y-223506D01*
X1195253Y-223220D01*
X1195421Y-222967D01*
X1196710Y-221678D01*
X1196710Y-218752D01*
X1194641Y-216683D01*
X1191715Y-216683D01*
X1189646Y-218752D01*
X1189646Y-221678D01*
X1190934Y-222967D01*
X1191097Y-223208D01*
X1191158Y-223506D01*
X1191158Y-226680D01*
X1191102Y-226966D01*
X1190934Y-227219D01*
X1158758Y-259395D01*
X1158517Y-259558D01*
X1158220Y-259618D01*
X1156397Y-259618D01*
X1154328Y-261687D01*
X1154328Y-264613D01*
X1156397Y-266682D01*
G37*
G36*
X858622Y-299922D02*
X861548Y-299922D01*
X863617Y-297853D01*
X863617Y-294927D01*
X862328Y-293638D01*
X862165Y-293397D01*
X862105Y-293099D01*
X862105Y-224198D01*
X862161Y-223912D01*
X862328Y-223659D01*
X863617Y-222371D01*
X863617Y-219445D01*
X861548Y-217376D01*
X858622Y-217376D01*
X856553Y-219445D01*
X856553Y-222371D01*
X857842Y-223659D01*
X858005Y-223901D01*
X858065Y-224198D01*
X858065Y-293099D01*
X858009Y-293385D01*
X857842Y-293638D01*
X856553Y-294927D01*
X856553Y-297853D01*
X858622Y-299922D01*
G37*
G36*
X1590603Y-268750D02*
X1594953Y-268750D01*
X1598028Y-265675D01*
X1598028Y-261325D01*
X1594953Y-258250D01*
X1590603Y-258250D01*
X1587528Y-261325D01*
X1587528Y-265675D01*
X1590603Y-268750D01*
G37*
G36*
X1571205Y-298537D02*
X1574131Y-298537D01*
X1576200Y-296468D01*
X1576200Y-293542D01*
X1574911Y-292253D01*
X1574748Y-292012D01*
X1574688Y-291714D01*
X1574688Y-288601D01*
X1574743Y-288315D01*
X1574911Y-288062D01*
X1576200Y-286773D01*
X1576200Y-283847D01*
X1574131Y-281778D01*
X1571205Y-281778D01*
X1569136Y-283847D01*
X1569136Y-286773D01*
X1570424Y-288062D01*
X1570587Y-288303D01*
X1570648Y-288601D01*
X1570648Y-291714D01*
X1570592Y-292000D01*
X1570424Y-292253D01*
X1569136Y-293542D01*
X1569136Y-296468D01*
X1571205Y-298537D01*
G37*
G36*
X1590603Y-326550D02*
X1594953Y-326550D01*
X1598028Y-323475D01*
X1598028Y-319125D01*
X1594953Y-316050D01*
X1590603Y-316050D01*
X1587528Y-319125D01*
X1587528Y-323475D01*
X1590603Y-326550D01*
G37*
G36*
X108490Y-354782D02*
X111623Y-354782D01*
X113838Y-352567D01*
X113838Y-349433D01*
X111623Y-347218D01*
X108490Y-347218D01*
X106274Y-349433D01*
X106274Y-352567D01*
X108490Y-354782D01*
G37*
G36*
X90490Y-354782D02*
X93623Y-354782D01*
X95838Y-352567D01*
X95838Y-349433D01*
X93623Y-347218D01*
X90490Y-347218D01*
X88274Y-349433D01*
X88274Y-352567D01*
X90490Y-354782D01*
G37*
G36*
X72490Y-354782D02*
X75623Y-354782D01*
X77838Y-352567D01*
X77838Y-349433D01*
X75623Y-347218D01*
X72490Y-347218D01*
X70274Y-349433D01*
X70274Y-352567D01*
X72490Y-354782D01*
G37*
%LPD*%
G36*
X711773Y-829178D02*
X711476Y-829238D01*
X-50476Y-829238D01*
X-50751Y-829187D01*
X-51006Y-829023D01*
X-51178Y-828773D01*
X-51238Y-828476D01*
X-51238Y-382524D01*
X-51187Y-382249D01*
X-51023Y-381994D01*
X-50773Y-381822D01*
X-50476Y-381762D01*
X10144Y-381762D01*
X11762Y-380144D01*
X11762Y-197893D01*
X11809Y-197630D01*
X11968Y-197372D01*
X12216Y-197197D01*
X12512Y-197131D01*
X12810Y-197187D01*
X13063Y-197355D01*
X37922Y-222214D01*
X38085Y-222455D01*
X38145Y-222752D01*
X38145Y-350577D01*
X38089Y-350863D01*
X37922Y-351116D01*
X36633Y-352405D01*
X36633Y-355377D01*
X36700Y-355476D01*
X36760Y-355773D01*
X36760Y-365092D01*
X44868Y-373200D01*
X102723Y-373200D01*
X103009Y-373256D01*
X103261Y-373423D01*
X111755Y-381917D01*
X111908Y-382137D01*
X111978Y-382432D01*
X111927Y-382731D01*
X111764Y-382986D01*
X111514Y-383158D01*
X111217Y-383218D01*
X108490Y-383218D01*
X106274Y-385433D01*
X106274Y-388567D01*
X108490Y-390782D01*
X111623Y-390782D01*
X113838Y-388567D01*
X113838Y-385839D01*
X113885Y-385576D01*
X114044Y-385318D01*
X114292Y-385143D01*
X114588Y-385078D01*
X114886Y-385133D01*
X115139Y-385301D01*
X126090Y-396252D01*
X126243Y-396471D01*
X126313Y-396766D01*
X126262Y-397065D01*
X126099Y-397321D01*
X125848Y-397492D01*
X125551Y-397553D01*
X99548Y-397553D01*
X99262Y-397497D01*
X99009Y-397329D01*
X97721Y-396041D01*
X94795Y-396041D01*
X92726Y-398110D01*
X92726Y-401036D01*
X94795Y-403105D01*
X97721Y-403105D01*
X99009Y-401816D01*
X99251Y-401653D01*
X99548Y-401593D01*
X126960Y-401593D01*
X127246Y-401648D01*
X127499Y-401816D01*
X521308Y-795625D01*
X647632Y-795625D01*
X710937Y-732320D01*
X711157Y-732167D01*
X711452Y-732097D01*
X711751Y-732148D01*
X712006Y-732311D01*
X712178Y-732561D01*
X712238Y-732858D01*
X712238Y-828476D01*
X712187Y-828751D01*
X712023Y-829006D01*
X711773Y-829178D01*
G37*
%LPC*%
G36*
X18490Y-228782D02*
X21623Y-228782D01*
X23838Y-226567D01*
X23838Y-223433D01*
X21623Y-221218D01*
X18490Y-221218D01*
X16274Y-223433D01*
X16274Y-226567D01*
X18490Y-228782D01*
G37*
G36*
X18490Y-264782D02*
X21623Y-264782D01*
X23838Y-262567D01*
X23838Y-259433D01*
X21623Y-257218D01*
X18490Y-257218D01*
X16274Y-259433D01*
X16274Y-262567D01*
X18490Y-264782D01*
G37*
G36*
X18490Y-282782D02*
X21623Y-282782D01*
X23838Y-280567D01*
X23838Y-277433D01*
X21623Y-275218D01*
X18490Y-275218D01*
X16274Y-277433D01*
X16274Y-280567D01*
X18490Y-282782D01*
G37*
G36*
X18490Y-300782D02*
X21623Y-300782D01*
X23838Y-298567D01*
X23838Y-295433D01*
X21623Y-293218D01*
X18490Y-293218D01*
X16274Y-295433D01*
X16274Y-298567D01*
X18490Y-300782D01*
G37*
G36*
X18490Y-318782D02*
X21623Y-318782D01*
X23838Y-316567D01*
X23838Y-313433D01*
X21623Y-311218D01*
X18490Y-311218D01*
X16274Y-313433D01*
X16274Y-316567D01*
X18490Y-318782D01*
G37*
G36*
X18490Y-336782D02*
X21623Y-336782D01*
X23838Y-334567D01*
X23838Y-331433D01*
X21623Y-329218D01*
X18490Y-329218D01*
X16274Y-331433D01*
X16274Y-334567D01*
X18490Y-336782D01*
G37*
G36*
X18490Y-354782D02*
X21623Y-354782D01*
X23838Y-352567D01*
X23838Y-349433D01*
X21623Y-347218D01*
X18490Y-347218D01*
X16274Y-349433D01*
X16274Y-352567D01*
X18490Y-354782D01*
G37*
G36*
X90490Y-390782D02*
X93623Y-390782D01*
X95838Y-388567D01*
X95838Y-385433D01*
X93623Y-383218D01*
X90490Y-383218D01*
X88274Y-385433D01*
X88274Y-388567D01*
X90490Y-390782D01*
G37*
G36*
X72490Y-390782D02*
X75623Y-390782D01*
X77838Y-388567D01*
X77838Y-385433D01*
X75623Y-383218D01*
X72490Y-383218D01*
X70274Y-385433D01*
X70274Y-388567D01*
X72490Y-390782D01*
G37*
G36*
X54490Y-390782D02*
X57623Y-390782D01*
X59838Y-388567D01*
X59838Y-385433D01*
X57623Y-383218D01*
X54490Y-383218D01*
X52274Y-385433D01*
X52274Y-388567D01*
X54490Y-390782D01*
G37*
G36*
X268612Y-630245D02*
X271538Y-630245D01*
X273607Y-628176D01*
X273607Y-626353D01*
X273663Y-626067D01*
X273830Y-625814D01*
X278328Y-621317D01*
X278328Y-566986D01*
X278383Y-566700D01*
X278551Y-566447D01*
X279840Y-565158D01*
X279840Y-562232D01*
X277771Y-560163D01*
X274845Y-560163D01*
X272776Y-562232D01*
X272776Y-565158D01*
X274064Y-566447D01*
X274227Y-566688D01*
X274288Y-566986D01*
X274288Y-619328D01*
X274232Y-619614D01*
X274064Y-619866D01*
X270973Y-622957D01*
X270732Y-623120D01*
X270435Y-623181D01*
X268612Y-623181D01*
X266543Y-625250D01*
X266543Y-628176D01*
X268612Y-630245D01*
G37*
%LPD*%
G36*
X681233Y-630172D02*
X680936Y-630233D01*
X422437Y-630233D01*
X422162Y-630181D01*
X421907Y-630018D01*
X421735Y-629768D01*
X421675Y-629471D01*
X421675Y-574603D01*
X421731Y-574317D01*
X421898Y-574064D01*
X422495Y-573468D01*
X422495Y-570542D01*
X421898Y-569946D01*
X421735Y-569704D01*
X421675Y-569407D01*
X421675Y-290013D01*
X416358Y-284696D01*
X416195Y-284455D01*
X416135Y-284158D01*
X416135Y-278906D01*
X416191Y-278620D01*
X416358Y-278367D01*
X417647Y-277078D01*
X417647Y-274152D01*
X415578Y-272083D01*
X412652Y-272083D01*
X410583Y-274152D01*
X410583Y-277078D01*
X411872Y-278367D01*
X412035Y-278608D01*
X412095Y-278906D01*
X412095Y-283094D01*
X412044Y-283368D01*
X411880Y-283624D01*
X411630Y-283795D01*
X411333Y-283856D01*
X408497Y-283856D01*
X408433Y-283919D01*
X408214Y-284072D01*
X407919Y-284142D01*
X407620Y-284091D01*
X407364Y-283928D01*
X407193Y-283678D01*
X407133Y-283380D01*
X407133Y-279626D01*
X369247Y-241740D01*
X357158Y-241740D01*
X356872Y-241684D01*
X356619Y-241517D01*
X355951Y-240848D01*
X355798Y-240629D01*
X355728Y-240334D01*
X355779Y-240035D01*
X355942Y-239779D01*
X356192Y-239608D01*
X356490Y-239548D01*
X735607Y-239548D01*
X735893Y-239603D01*
X736146Y-239771D01*
X737435Y-241060D01*
X740361Y-241060D01*
X742544Y-238876D01*
X742775Y-238718D01*
X743071Y-238653D01*
X743369Y-238708D01*
X743622Y-238876D01*
X806470Y-301724D01*
X806633Y-301966D01*
X806693Y-302263D01*
X806693Y-304086D01*
X808762Y-306155D01*
X811688Y-306155D01*
X813702Y-304140D01*
X813922Y-303987D01*
X814217Y-303918D01*
X814516Y-303968D01*
X814771Y-304132D01*
X814943Y-304382D01*
X815003Y-304679D01*
X815003Y-306163D01*
X817072Y-308232D01*
X819998Y-308232D01*
X821287Y-306943D01*
X821528Y-306780D01*
X821826Y-306720D01*
X900483Y-306720D01*
X900769Y-306776D01*
X901021Y-306943D01*
X955506Y-361428D01*
X1117235Y-361428D01*
X1117521Y-361483D01*
X1117774Y-361651D01*
X1343505Y-587382D01*
X1343658Y-587601D01*
X1343728Y-587896D01*
X1343677Y-588195D01*
X1343514Y-588451D01*
X1343263Y-588622D01*
X1342966Y-588683D01*
X554521Y-588683D01*
X554235Y-588627D01*
X553982Y-588459D01*
X552693Y-587171D01*
X549767Y-587171D01*
X547698Y-589240D01*
X547698Y-592166D01*
X547762Y-592229D01*
X547915Y-592449D01*
X547985Y-592744D01*
X547934Y-593043D01*
X547770Y-593298D01*
X547520Y-593470D01*
X547223Y-593530D01*
X537901Y-593530D01*
X537615Y-593474D01*
X537362Y-593307D01*
X536073Y-592018D01*
X533147Y-592018D01*
X531078Y-594087D01*
X531078Y-597013D01*
X533147Y-599082D01*
X536073Y-599082D01*
X537362Y-597793D01*
X537603Y-597630D01*
X537901Y-597570D01*
X638694Y-597570D01*
X638957Y-597617D01*
X639215Y-597776D01*
X639390Y-598024D01*
X639456Y-598320D01*
X639400Y-598618D01*
X639232Y-598871D01*
X633151Y-604952D01*
X632909Y-605115D01*
X632612Y-605176D01*
X630790Y-605176D01*
X628721Y-607245D01*
X628721Y-610171D01*
X628784Y-610234D01*
X628937Y-610454D01*
X629007Y-610749D01*
X628956Y-611048D01*
X628793Y-611303D01*
X628543Y-611475D01*
X628245Y-611535D01*
X526821Y-611535D01*
X526535Y-611479D01*
X526282Y-611312D01*
X524993Y-610023D01*
X522067Y-610023D01*
X519998Y-612092D01*
X519998Y-615018D01*
X522067Y-617087D01*
X524993Y-617087D01*
X526282Y-615798D01*
X526523Y-615635D01*
X526821Y-615575D01*
X667803Y-615575D01*
X668089Y-615631D01*
X668341Y-615798D01*
X681475Y-628932D01*
X681628Y-629151D01*
X681698Y-629446D01*
X681647Y-629745D01*
X681484Y-630001D01*
X681233Y-630172D01*
G37*
%LPC*%
G36*
X851005Y-570690D02*
X853931Y-570690D01*
X856000Y-568621D01*
X856000Y-565695D01*
X853931Y-563626D01*
X851005Y-563626D01*
X849716Y-564914D01*
X849474Y-565077D01*
X849177Y-565138D01*
X843452Y-565138D01*
X843166Y-565082D01*
X842914Y-564914D01*
X805278Y-527278D01*
X805115Y-527037D01*
X805055Y-526740D01*
X805055Y-524917D01*
X802986Y-522848D01*
X800060Y-522848D01*
X797991Y-524917D01*
X797991Y-527843D01*
X800060Y-529912D01*
X801882Y-529912D01*
X802168Y-529968D01*
X802421Y-530135D01*
X841463Y-569178D01*
X849177Y-569178D01*
X849463Y-569233D01*
X849716Y-569401D01*
X851005Y-570690D01*
G37*
%LPD*%
G36*
X365979Y-570815D02*
X365683Y-570880D01*
X365384Y-570824D01*
X365132Y-570657D01*
X362948Y-568473D01*
X360022Y-568473D01*
X358733Y-569762D01*
X358492Y-569925D01*
X358194Y-569985D01*
X305852Y-569985D01*
X305566Y-569929D01*
X305314Y-569762D01*
X127635Y-392083D01*
X127482Y-391863D01*
X127412Y-391568D01*
X127463Y-391269D01*
X127626Y-391014D01*
X127876Y-390842D01*
X128173Y-390782D01*
X129623Y-390782D01*
X131838Y-388567D01*
X131838Y-385433D01*
X129623Y-383218D01*
X126490Y-383218D01*
X124274Y-385433D01*
X124274Y-386883D01*
X124227Y-387146D01*
X124068Y-387404D01*
X123820Y-387580D01*
X123524Y-387645D01*
X123226Y-387589D01*
X122973Y-387422D01*
X107283Y-371731D01*
X107130Y-371511D01*
X107060Y-371216D01*
X107111Y-370917D01*
X107274Y-370662D01*
X107524Y-370490D01*
X107821Y-370430D01*
X225207Y-370430D01*
X247836Y-347801D01*
X248078Y-347638D01*
X248375Y-347578D01*
X331248Y-347578D01*
X331534Y-347633D01*
X331786Y-347801D01*
X333641Y-349655D01*
X351269Y-349655D01*
X351555Y-349711D01*
X351808Y-349878D01*
X353097Y-351167D01*
X356023Y-351167D01*
X358092Y-349098D01*
X358092Y-346172D01*
X356023Y-344103D01*
X353097Y-344103D01*
X351808Y-345392D01*
X351567Y-345555D01*
X351269Y-345615D01*
X335630Y-345615D01*
X335344Y-345559D01*
X335091Y-345392D01*
X333237Y-343538D01*
X249784Y-343538D01*
X249521Y-343491D01*
X249262Y-343331D01*
X249087Y-343084D01*
X249022Y-342788D01*
X249078Y-342490D01*
X249245Y-342237D01*
X307391Y-284091D01*
X307633Y-283928D01*
X307930Y-283868D01*
X396974Y-283868D01*
X397260Y-283923D01*
X397513Y-284091D01*
X398802Y-285380D01*
X401728Y-285380D01*
X401792Y-285316D01*
X402011Y-285163D01*
X402306Y-285093D01*
X402605Y-285144D01*
X402861Y-285307D01*
X403032Y-285557D01*
X403093Y-285855D01*
X403093Y-382248D01*
X403041Y-382523D01*
X402878Y-382778D01*
X402628Y-382950D01*
X402331Y-383010D01*
X210348Y-383010D01*
X210062Y-382954D01*
X209809Y-382787D01*
X208521Y-381498D01*
X205595Y-381498D01*
X203526Y-383567D01*
X203526Y-386493D01*
X205595Y-388562D01*
X208521Y-388562D01*
X209809Y-387273D01*
X210051Y-387110D01*
X210348Y-387050D01*
X402331Y-387050D01*
X402605Y-387101D01*
X402861Y-387265D01*
X403032Y-387515D01*
X403093Y-387812D01*
X403093Y-533458D01*
X403037Y-533744D01*
X402869Y-533996D01*
X366209Y-570657D01*
X365979Y-570815D01*
G37*
%LPC*%
G36*
X144490Y-390782D02*
X147623Y-390782D01*
X149838Y-388567D01*
X149838Y-385433D01*
X147623Y-383218D01*
X144490Y-383218D01*
X142274Y-385433D01*
X142274Y-388567D01*
X144490Y-390782D01*
G37*
%LPD*%
G36*
X631337Y-786677D02*
X631039Y-786738D01*
X557922Y-786738D01*
X557636Y-786682D01*
X557384Y-786514D01*
X480540Y-709671D01*
X480387Y-709451D01*
X480317Y-709156D01*
X480368Y-708857D01*
X480532Y-708602D01*
X480782Y-708430D01*
X481079Y-708370D01*
X617882Y-708370D01*
X618168Y-708426D01*
X618421Y-708593D01*
X619710Y-709882D01*
X622636Y-709882D01*
X624705Y-707813D01*
X624705Y-705990D01*
X624760Y-705704D01*
X624928Y-705452D01*
X683292Y-647088D01*
X683533Y-646925D01*
X683830Y-646865D01*
X685653Y-646865D01*
X687837Y-644681D01*
X688067Y-644523D01*
X688363Y-644458D01*
X688661Y-644513D01*
X688914Y-644681D01*
X724211Y-679978D01*
X794530Y-679978D01*
X794816Y-680033D01*
X795069Y-680201D01*
X795719Y-680851D01*
X795877Y-681081D01*
X795942Y-681378D01*
X795887Y-681676D01*
X795719Y-681928D01*
X794316Y-683332D01*
X794074Y-683495D01*
X793777Y-683555D01*
X736676Y-683555D01*
X635228Y-785002D01*
X634987Y-785165D01*
X634690Y-785226D01*
X632867Y-785226D01*
X631578Y-786514D01*
X631337Y-786677D01*
G37*
D10*
X1487490Y-719508D02*
X1547045Y-659953D01*
X1487490Y-720200D02*
X1497185Y-729895D01*
X1487490Y-720200D02*
X1487490Y-719508D01*
X1598983Y-328938D02*
X1626683Y-328938D01*
X1598983Y-328938D02*
X1595520Y-328938D01*
X1598983Y-328938D02*
X1598983Y-288773D01*
X1572668Y-262458D01*
X1560895Y-659953D02*
X1547045Y-659953D01*
X1560895Y-659953D02*
X1595520Y-625328D01*
X1595520Y-328938D01*
X1102460Y-235450D02*
X1089995Y-222985D01*
X1103153Y-235450D02*
X1127390Y-259688D01*
X1103153Y-235450D02*
X1102460Y-235450D01*
X1102460Y-236143D02*
X1078915Y-259688D01*
X1102460Y-236143D02*
X1102460Y-235450D01*
X1130160Y-263150D02*
X1130160Y-309548D01*
X1130160Y-263150D02*
X1127390Y-260380D01*
X1127390Y-259688D01*
X1518653Y-328938D02*
X1595520Y-328938D01*
X1518653Y-328938D02*
X1511728Y-322013D01*
X409268Y251378D02*
X397495Y251378D01*
X391263Y245145D01*
X238913Y245145D01*
X664108Y-669648D02*
X580315Y-753440D01*
X53323Y-340018D02*
X53323Y-330323D01*
X313703Y-350405D02*
X331015Y-350405D01*
X313703Y-350405D02*
X283925Y-380183D01*
X537380Y-711198D02*
X579623Y-753440D01*
X580315Y-753440D01*
X23545Y-211213D02*
X18005Y-211213D01*
X14543Y-214675D01*
X848313Y-314395D02*
X905098Y-314395D01*
X848313Y-314395D02*
X814380Y-348328D01*
D11*
X1547045Y-659953D03*
X1487490Y-719508D03*
X1497185Y-729895D03*
X1595520Y-328938D03*
X1626683Y-328938D03*
X1572668Y-262458D03*
X1102460Y-235450D03*
X1089995Y-222985D03*
X1127390Y-259688D03*
X1078915Y-259688D03*
X1130160Y-309548D03*
X1511728Y-322013D03*
X409268Y251378D03*
X238913Y245145D03*
X580315Y-753440D03*
X664108Y-669648D03*
X53323Y-340018D03*
X53323Y-330323D03*
X331015Y-350405D03*
X283925Y-380183D03*
X537380Y-711198D03*
X23545Y-211213D03*
X14543Y-214675D03*
X905098Y-314395D03*
X814380Y-348328D03*
D12*
X178000Y209000D03*
D13*
X156282Y230718D01*
X156282Y271000D01*
D12*
X151000Y271000D03*
D13*
X156282Y271000D01*
D10*
X1132238Y-317858D02*
X1215338Y-317858D01*
X1094843Y-354560D02*
X1087918Y-354560D01*
X1094843Y-354560D02*
X1131545Y-317858D01*
X1132238Y-317858D01*
D11*
X1215338Y-317858D03*
X1132238Y-317858D03*
X1087918Y-354560D03*
D10*
X780448Y-211905D02*
X184898Y-211905D01*
D11*
X184898Y-211905D03*
X780448Y-211905D03*
D10*
X551230Y-590703D02*
X1345528Y-590703D01*
X1445940Y-691115D01*
X1475025Y-691115D01*
D11*
X551230Y-590703D03*
X1475025Y-691115D03*
D10*
X1551893Y-635023D02*
X1579593Y-635023D01*
X1551893Y-635023D02*
X1512420Y-674495D01*
X209135Y-231988D02*
X164815Y-231988D01*
X304700Y-231988D02*
X739590Y-231988D01*
X810225Y-302623D01*
D11*
X1579593Y-635023D03*
X1512420Y-674495D03*
X164815Y-231988D03*
X209135Y-231988D03*
X304700Y-231988D03*
X810225Y-302623D03*
D12*
X1460000Y-668000D03*
D14*
X1460000Y-645000D01*
X1449000Y-634000D01*
X1449000Y-449000D01*
X1435000Y-435000D01*
X1377000Y-435000D01*
X1344000Y-402000D01*
X1344000Y-229000D01*
D12*
X1312000Y-226000D03*
D14*
X1341000Y-226000D02*
X1344000Y-229000D01*
X1341000Y-226000D02*
X1312000Y-226000D01*
D10*
X1551200Y-629483D02*
X1574053Y-629483D01*
X1551200Y-629483D02*
X1497878Y-682805D01*
X270075Y-260380D02*
X193208Y-260380D01*
X270075Y-260380D02*
X303315Y-227140D01*
X740975Y-227140D01*
X818535Y-304700D01*
X1441785Y-682805D02*
X1497878Y-682805D01*
X1441785Y-682805D02*
X1118388Y-359408D01*
X956343Y-359408D01*
X901635Y-304700D01*
X818535Y-304700D01*
D11*
X1574053Y-629483D03*
X1497878Y-682805D03*
X193208Y-260380D03*
X818535Y-304700D03*
D12*
X1312000Y-317000D03*
D14*
X1312000Y-472000D01*
X1440000Y-600000D01*
X1440000Y-665000D01*
X1451000Y-676000D01*
X1457000Y-676000D01*
X1460456Y-672544D01*
X1461882Y-672544D01*
X1463426Y-671000D01*
X1486000Y-671000D01*
X1487000Y-670000D01*
X1494000Y-670000D01*
X1498000Y-674000D01*
X1498000Y-682683D01*
X1497878Y-682805D01*
D10*
X621865Y247915D02*
X615633Y254148D01*
X48475Y-319243D02*
X48475Y-363563D01*
X48475Y-319243D02*
X432813Y65095D01*
X432813Y170355D01*
X517298Y254148D02*
X615633Y254148D01*
X517298Y254148D02*
X433505Y170355D01*
X432813Y170355D01*
D11*
X621865Y247915D03*
X615633Y254148D03*
X48475Y-363563D03*
X432813Y170355D03*
D10*
X119803Y-353868D02*
X124650Y-358715D01*
X119803Y-353868D02*
X119803Y-327553D01*
X230603Y-216753D01*
X726433Y-216753D01*
D11*
X124650Y-358715D03*
X726433Y-216753D03*
D10*
X1193178Y-220215D02*
X1193178Y-227833D01*
X1157860Y-263150D01*
D11*
X1193178Y-220215D03*
X1157860Y-263150D03*
D10*
X853160Y-662723D02*
X853160Y-666878D01*
X853160Y-662723D02*
X855930Y-659953D01*
X855930Y-650950D01*
X803300Y-598320D01*
X642640Y-598320D01*
X632253Y-608708D01*
D11*
X853160Y-666878D03*
X632253Y-608708D03*
D10*
X793605Y-647488D02*
X793605Y-652335D01*
X793605Y-647488D02*
X806763Y-634330D01*
X806763Y-631560D01*
X788065Y-612863D01*
X672418Y-612863D01*
X668263Y-608708D01*
X649565Y-608708D01*
D11*
X793605Y-652335D03*
X649565Y-608708D03*
D10*
X863548Y-648180D02*
X863548Y-688345D01*
X863548Y-648180D02*
X830308Y-614940D01*
D11*
X863548Y-688345D03*
X830308Y-614940D03*
D10*
X773523Y-661338D02*
X773523Y-662723D01*
X773523Y-661338D02*
X801915Y-632945D01*
D11*
X773523Y-662723D03*
X801915Y-632945D03*
D10*
X872550Y-698040D02*
X890555Y-680035D01*
D11*
X872550Y-698040D03*
X890555Y-680035D03*
D10*
X389878Y249993D02*
X403035Y263150D01*
X421733Y245145D02*
X425888Y245145D01*
X466053Y245145D01*
X421733Y245145D02*
X403728Y263150D01*
X403035Y263150D01*
X425888Y109415D02*
X189053Y-127420D01*
X425888Y109415D02*
X425888Y245145D01*
D11*
X389878Y249993D03*
X403035Y263150D03*
X466053Y245145D03*
X189053Y-127420D03*
D10*
X684190Y-643333D02*
X621173Y-706350D01*
X90718Y92103D02*
X168970Y170355D01*
X478518Y-706350D02*
X621173Y-706350D01*
X478518Y-706350D02*
X405805Y-633638D01*
X405805Y-542228D01*
X414808Y-533225D01*
X414808Y-440430D01*
D11*
X621173Y-706350D03*
X684190Y-643333D03*
X90718Y92103D03*
X168970Y170355D03*
X414808Y-440430D03*
D10*
X6233Y54708D02*
X6233Y59555D01*
X121880Y175203D01*
X245145Y175203D01*
X737513Y-685575D02*
X797068Y-685575D01*
X737513Y-685575D02*
X634330Y-788758D01*
X340710Y-281848D02*
X306778Y-281848D01*
X340710Y-281848D02*
X400265Y-281848D01*
X306778Y-281848D02*
X225063Y-363563D01*
X108030Y-363563D01*
X556770Y-788758D02*
X634330Y-788758D01*
X556770Y-788758D02*
X403035Y-635023D01*
X403035Y-540843D01*
X409960Y-533918D01*
X409960Y-287388D01*
X340710Y-281848D02*
X340710Y-249993D01*
D11*
X6233Y54708D03*
X245145Y175203D03*
X797068Y-685575D03*
X634330Y-788758D03*
X400265Y-281848D03*
X108030Y-363563D03*
X409960Y-287388D03*
X340710Y-249993D03*
D10*
X792913Y-667570D02*
X804685Y-667570D01*
X792913Y-667570D02*
X785295Y-675188D01*
X726433Y-675188D01*
X683498Y-632253D01*
X419655Y-632253D02*
X410653Y-632253D01*
X419655Y-632253D02*
X683498Y-632253D01*
X414115Y-285310D02*
X414115Y-275615D01*
X414115Y-285310D02*
X419655Y-290850D01*
X419655Y-572005D02*
X419655Y-632253D01*
X419655Y-572005D02*
X419655Y-290850D01*
X418963Y-572005D02*
X419655Y-572005D01*
X11080Y36703D02*
X11080Y58170D01*
X11080Y36703D02*
X4155Y29778D01*
X4155Y-185590D01*
X40165Y-221600D01*
X40165Y-353868D01*
X149580Y144733D02*
X421040Y144733D01*
X149580Y144733D02*
X63018Y58170D01*
X11080Y58170D01*
X304700Y-572005D02*
X361485Y-572005D01*
X304700Y-572005D02*
X103875Y-371180D01*
X45705Y-371180D01*
X38780Y-364255D01*
X38780Y-355945D01*
X40165Y-354560D01*
X40165Y-353868D01*
D11*
X804685Y-667570D03*
X410653Y-632253D03*
X414115Y-275615D03*
X418963Y-572005D03*
X11080Y58170D03*
X40165Y-353868D03*
X421040Y144733D03*
X361485Y-572005D03*
D10*
X360793Y-579623D02*
X360793Y-626020D01*
X353868Y-243760D02*
X368410Y-243760D01*
X405113Y-280463D01*
X405113Y-385030D02*
X405113Y-534610D01*
X405113Y-385030D02*
X405113Y-280463D01*
X405113Y-534610D02*
X360793Y-578930D01*
X360793Y-579623D01*
X405113Y-385030D02*
X207058Y-385030D01*
D11*
X360793Y-626020D03*
X360793Y-579623D03*
X353868Y-243760D03*
X207058Y-385030D03*
D10*
X801223Y-683498D02*
X808840Y-683498D01*
X801223Y-683498D02*
X795683Y-677958D01*
X725048Y-677958D01*
X685575Y-638485D01*
X416885Y-638485D01*
X276308Y-620480D02*
X276308Y-563695D01*
X276308Y-620480D02*
X270075Y-626713D01*
D11*
X808840Y-683498D03*
X416885Y-638485D03*
X276308Y-563695D03*
X270075Y-626713D03*
D10*
X9003Y-186283D02*
X9003Y28393D01*
X9003Y-186283D02*
X45013Y-222293D01*
X45013Y-357330D01*
X43628Y-358715D01*
X334478Y-347635D02*
X354560Y-347635D01*
X334478Y-347635D02*
X332400Y-345558D01*
X247223Y-345558D01*
X224370Y-368410D01*
X47090Y-368410D01*
X43628Y-364948D01*
X43628Y-358715D01*
D11*
X9003Y28393D03*
X43628Y-358715D03*
X354560Y-347635D03*
D10*
X828230Y-683498D02*
X851775Y-683498D01*
X871165Y-702888D01*
X1011743Y-702888D01*
X150273Y-211213D02*
X57478Y-211213D01*
X534610Y-595550D02*
X804685Y-595550D01*
X858700Y-649565D01*
X858700Y-675880D01*
X851775Y-682805D01*
X851775Y-683498D01*
D11*
X828230Y-683498D03*
X1011743Y-702888D03*
X57478Y-211213D03*
X150273Y-211213D03*
X534610Y-595550D03*
D10*
X821998Y-683498D02*
X846235Y-707735D01*
X1013128Y-707735D01*
X1070605Y-650258D01*
X128113Y-399573D02*
X96258Y-399573D01*
X128113Y-399573D02*
X522145Y-793605D01*
X646795Y-793605D01*
X749978Y-690423D01*
X814380Y-690423D01*
X821305Y-683498D01*
X821998Y-683498D01*
D11*
X821998Y-683498D03*
X1070605Y-650258D03*
X96258Y-399573D03*
D10*
X809533Y-666185D02*
X817843Y-666185D01*
X809533Y-666185D02*
X806070Y-662723D01*
X793605Y-662723D01*
X783910Y-672418D01*
X727818Y-672418D01*
X668955Y-613555D01*
X523530Y-613555D01*
X121188Y-189053D02*
X189053Y-121188D01*
D11*
X817843Y-666185D03*
X523530Y-613555D03*
X189053Y-121188D03*
X121188Y-189053D03*
D10*
X124650Y-352483D02*
X231988Y-352483D01*
X346943Y-237528D01*
X738898Y-237528D01*
D11*
X124650Y-352483D03*
X738898Y-237528D03*
D10*
X1572668Y-285310D02*
X1572668Y-295005D01*
D11*
X1572668Y-295005D03*
X1572668Y-285310D03*
D10*
X1169633Y-295698D02*
X1055370Y-181435D01*
X204980Y-181435D01*
X116340Y-270075D01*
X116340Y-323398D01*
D11*
X116340Y-323398D03*
X1325780Y-295698D03*
D10*
X1169633Y-295698D01*
X995123Y-186283D02*
X204288Y-186283D01*
X121188Y-269383D01*
X121188Y-319935D01*
D11*
X995123Y-186283D03*
X121188Y-319935D03*
D10*
X842300Y-567158D02*
X852468Y-567158D01*
X842300Y-567158D02*
X801523Y-526380D01*
D11*
X852468Y-567158D03*
X801523Y-526380D03*
D10*
X872550Y-628790D02*
X872550Y-691808D01*
D11*
X872550Y-691808D03*
X872550Y-628790D03*
D10*
X784603Y-667570D02*
X768675Y-667570D01*
X784603Y-667570D02*
X819228Y-632945D01*
D11*
X768675Y-667570D03*
X819228Y-632945D03*
D10*
X849005Y-652335D02*
X851083Y-652335D01*
X849005Y-652335D02*
X799838Y-603168D01*
X717430Y-603168D01*
D11*
X851083Y-652335D03*
X717430Y-603168D03*
D10*
X800530Y-608015D02*
X851083Y-658568D01*
X800530Y-608015D02*
X709120Y-608015D01*
D11*
X851083Y-658568D03*
X709120Y-608015D03*
D10*
X860085Y-296390D02*
X860085Y-220908D01*
D11*
X860085Y-296390D03*
X860085Y-220908D03*
D12*
X200056Y-207000D03*
X200056Y-225000D03*
X128056Y-225000D03*
X110056Y-225000D03*
X92056Y-225000D03*
X74056Y-225000D03*
X56056Y-225000D03*
X20056Y-225000D03*
X110056Y-243000D03*
X92056Y-243000D03*
X74056Y-243000D03*
X56056Y-243000D03*
X164056Y-261000D03*
X146056Y-261000D03*
X92056Y-261000D03*
X74056Y-261000D03*
X56056Y-261000D03*
X20056Y-261000D03*
X200056Y-279000D03*
X182056Y-279000D03*
X146056Y-279000D03*
X128056Y-279000D03*
X110056Y-279000D03*
X74056Y-279000D03*
X20056Y-279000D03*
X200056Y-297000D03*
X182056Y-297000D03*
X146056Y-387000D03*
X128056Y-387000D03*
X110056Y-387000D03*
X92056Y-387000D03*
X74056Y-387000D03*
X56056Y-387000D03*
X20056Y-351000D03*
X74056Y-351000D03*
X92056Y-351000D03*
X110056Y-351000D03*
X20056Y-333000D03*
X182056Y-333000D03*
X200056Y-333000D03*
X20056Y-315000D03*
X164056Y-315000D03*
X182056Y-315000D03*
X200056Y-315000D03*
X20056Y-297000D03*
X56056Y-297000D03*
X110056Y-297000D03*
X128056Y-297000D03*
X164056Y-297000D03*
M02*
