G04 EAGLE Gerber RS-274X export*
G75*
%MOMM*%
%FSLAX34Y34*%
%LPD*%
%INSolderpaste Top*%
%IPPOS*%
%AMOC8*
5,1,8,0,0,1.08239X$1,22.5*%
G01*
G04 Define Apertures*
%ADD10R,0.700000X0.900000*%
%ADD11R,0.900000X0.700000*%
%ADD12R,1.400000X1.400000*%
%ADD13R,2.200000X2.000000*%
%ADD14R,1.200000X0.600000*%
%ADD15R,0.940000X0.970000*%
%ADD16R,0.900000X0.800000*%
%ADD17R,1.150000X0.800000*%
%ADD18R,0.970000X0.940000*%
%ADD19R,0.900000X0.600000*%
%ADD20R,1.150000X0.300000*%
%ADD21R,2.000000X2.180000*%
%ADD22R,1.200000X1.800000*%
%ADD23R,1.900000X1.400000*%
%ADD24R,1.500000X0.700000*%
%ADD25R,2.000000X1.200000*%
%ADD26R,1.350000X0.600000*%
%ADD27R,0.300000X0.800000*%
%ADD28R,0.400000X0.800000*%
%ADD29R,4.826000X0.889000*%
%ADD30R,0.800000X0.800000*%
%ADD31R,0.800000X0.900000*%
%ADD32R,1.500000X3.600000*%
%ADD33R,1.600200X1.168400*%
%ADD34R,1.400000X1.050000*%
%ADD35R,0.900000X1.500000*%
%ADD36R,0.560000X0.820000*%
%ADD37C,0.067500*%
%ADD38C,0.076200*%
%ADD39R,1.010000X1.460000*%
%ADD40C,0.110000*%
%ADD41R,1.200000X0.550000*%
%ADD42C,0.125000*%
%ADD43C,0.147500*%
D10*
X1444300Y-323800D03*
X1457300Y-323800D03*
X1049200Y-244000D03*
X1062200Y-244000D03*
D11*
X636100Y-664100D03*
X636100Y-651100D03*
X652200Y-663100D03*
X652200Y-650100D03*
X750000Y-634100D03*
X750000Y-621100D03*
X846300Y-638100D03*
X846300Y-625100D03*
X864400Y-638100D03*
X864400Y-625100D03*
X826500Y-639100D03*
X826500Y-626100D03*
X883600Y-637100D03*
X883600Y-624100D03*
X808800Y-639300D03*
X808800Y-626300D03*
X788900Y-641300D03*
X788900Y-628300D03*
D10*
X1443200Y-347000D03*
X1456200Y-347000D03*
D11*
X770000Y-638300D03*
X770000Y-625300D03*
X1497400Y-768300D03*
X1497400Y-755300D03*
X1520200Y-770300D03*
X1520200Y-757300D03*
D10*
X831500Y-356800D03*
X818500Y-356800D03*
D12*
X922900Y-296600D03*
X922900Y-274600D03*
D11*
X484800Y157700D03*
X484800Y170700D03*
X633100Y242500D03*
X633100Y255500D03*
X483600Y244578D03*
X483600Y257578D03*
X230200Y242500D03*
X230200Y255500D03*
X1241200Y-382500D03*
X1241200Y-369500D03*
D13*
X1193900Y-343000D03*
X1193900Y-373000D03*
D11*
X1048700Y-359500D03*
X1048700Y-346500D03*
X-1400Y155700D03*
X-1400Y168700D03*
X912600Y-541100D03*
X912600Y-554100D03*
D10*
X764200Y-599000D03*
X777200Y-599000D03*
X1091700Y-244000D03*
X1104700Y-244000D03*
D14*
X1432300Y-277300D03*
X1432300Y-286800D03*
X1432300Y-296300D03*
X1457300Y-296300D03*
X1457300Y-286800D03*
X1457300Y-277300D03*
D15*
X353200Y-587300D03*
X353200Y-572300D03*
X277000Y-587300D03*
X277000Y-572300D03*
X378800Y-347300D03*
X378800Y-332300D03*
D16*
X1082300Y-362200D03*
X1082300Y-341200D03*
D17*
X844100Y-525800D03*
X879100Y-525800D03*
X752500Y-505800D03*
X787500Y-505800D03*
X842700Y-567700D03*
X877700Y-567700D03*
D16*
X859800Y-309200D03*
X859800Y-288200D03*
D18*
X672300Y-634800D03*
X687300Y-634800D03*
X580100Y-794800D03*
X565100Y-794800D03*
D15*
X392400Y-587300D03*
X392400Y-572300D03*
D19*
X1109900Y-340100D03*
X1109900Y-349600D03*
X1109900Y-359100D03*
X1137900Y-359100D03*
X1137900Y-340100D03*
X424500Y170900D03*
X424500Y161400D03*
X424500Y151900D03*
X452500Y151900D03*
X452500Y170900D03*
D20*
X1582028Y-325900D03*
X1582028Y-317900D03*
X1582028Y-304900D03*
X1582028Y-294900D03*
X1582028Y-289900D03*
X1582028Y-279900D03*
X1582028Y-266900D03*
X1582028Y-258900D03*
X1582028Y-261900D03*
X1582028Y-269900D03*
X1582028Y-274900D03*
X1582028Y-284900D03*
X1582028Y-299900D03*
X1582028Y-309900D03*
X1582028Y-314900D03*
X1582028Y-322900D03*
D21*
X1627078Y-343500D03*
X1627078Y-241300D03*
X1587778Y-343500D03*
X1587778Y-241300D03*
D22*
X100762Y7500D03*
X100762Y64500D03*
D23*
X-41738Y-22500D03*
X-31738Y109000D03*
D24*
X-3238Y25500D03*
X762Y36500D03*
X-3238Y47500D03*
X-5238Y58500D03*
X-3238Y69500D03*
X-5238Y80500D03*
X-3238Y91500D03*
X-3238Y102500D03*
D22*
X100762Y36000D03*
X100762Y93000D03*
D25*
X1627078Y-672400D03*
X1627078Y-616400D03*
D26*
X1590328Y-659400D03*
X1590328Y-649400D03*
X1590328Y-639400D03*
X1590328Y-629400D03*
D27*
X868400Y-675300D03*
X863400Y-675300D03*
X858400Y-675300D03*
X853400Y-675300D03*
X848400Y-675300D03*
X843400Y-675300D03*
X838400Y-675300D03*
X833400Y-675300D03*
X828400Y-675300D03*
X823400Y-675300D03*
X818400Y-675300D03*
X813400Y-675300D03*
X808400Y-675300D03*
X803400Y-675300D03*
X798400Y-675300D03*
X793400Y-675300D03*
X788400Y-675300D03*
X783400Y-675300D03*
X778400Y-675300D03*
X773400Y-675300D03*
X768400Y-675300D03*
X763400Y-675300D03*
X758400Y-675300D03*
X753400Y-675300D03*
D28*
X878400Y-700300D03*
X743400Y-700300D03*
D29*
X769700Y-533640D03*
X769700Y-579360D03*
D30*
X1130600Y-302000D03*
X1130600Y-287000D03*
D31*
X1206500Y-317400D03*
X1225500Y-317400D03*
X1216000Y-296400D03*
X568700Y-675400D03*
X587700Y-675400D03*
X578200Y-654400D03*
D16*
X700400Y-585900D03*
X700400Y-604900D03*
X721400Y-595400D03*
D11*
X1498100Y-274900D03*
X1498100Y-261900D03*
D10*
X1085800Y-266000D03*
X1098800Y-266000D03*
D11*
X1201900Y-224900D03*
X1201900Y-211900D03*
X1452500Y-767500D03*
X1452500Y-754500D03*
X1475700Y-767500D03*
X1475700Y-754500D03*
X859900Y-213700D03*
X859900Y-200700D03*
D10*
X797600Y-196200D03*
X810600Y-196200D03*
X796800Y-166200D03*
X809800Y-166200D03*
D11*
X545500Y247300D03*
X545500Y260300D03*
X396700Y243300D03*
X396700Y256300D03*
X140900Y243300D03*
X140900Y256300D03*
D32*
X1410900Y-384000D03*
X1455900Y-384000D03*
D11*
X346100Y-348700D03*
X346100Y-335700D03*
X277300Y-633700D03*
X277300Y-620700D03*
X352500Y-633700D03*
X352500Y-620700D03*
X396700Y-631700D03*
X396700Y-618700D03*
X1503300Y-325900D03*
X1503300Y-312900D03*
X626900Y-795700D03*
X626900Y-782700D03*
D10*
X628600Y-708200D03*
X641600Y-708200D03*
X1082700Y-389000D03*
X1095700Y-389000D03*
D11*
X662500Y-486900D03*
X662500Y-499900D03*
X143300Y-418700D03*
X143300Y-405700D03*
D10*
X565000Y-738200D03*
X578000Y-738200D03*
D11*
X639700Y-602700D03*
X639700Y-589700D03*
X666900Y-603500D03*
X666900Y-590500D03*
D33*
X604200Y-486980D03*
X604200Y-502220D03*
D34*
X604900Y263828D03*
X569900Y263828D03*
X569900Y248828D03*
X604900Y248828D03*
X455400Y263828D03*
X420400Y263828D03*
X420400Y248828D03*
X455400Y248828D03*
X204900Y263828D03*
X169900Y263828D03*
X169900Y248828D03*
X204900Y248828D03*
D35*
X23400Y-375100D03*
X36100Y-375100D03*
X48800Y-375100D03*
X61500Y-375100D03*
X74200Y-375100D03*
X86900Y-375100D03*
X99600Y-375100D03*
X112300Y-375100D03*
X125000Y-375100D03*
X137700Y-375100D03*
X150400Y-375100D03*
X163100Y-375100D03*
X175800Y-375100D03*
X188500Y-375100D03*
X188500Y-200100D03*
X175800Y-200100D03*
X163100Y-200100D03*
X150400Y-200100D03*
X137700Y-200100D03*
X125000Y-200100D03*
X112300Y-200100D03*
X99600Y-200100D03*
X86900Y-200100D03*
X74200Y-200100D03*
X61500Y-200100D03*
X48800Y-200100D03*
X36100Y-200100D03*
X23400Y-200100D03*
D30*
X80600Y-302650D03*
X68100Y-315150D03*
X68100Y-302650D03*
X68100Y-290150D03*
X80600Y-315150D03*
X80600Y-290150D03*
X93100Y-315150D03*
X93100Y-302650D03*
X93100Y-290150D03*
D36*
X1290000Y-232800D03*
D37*
X1283613Y-226313D02*
X1276687Y-226313D01*
X1276687Y-224287D01*
X1283613Y-224287D01*
X1283613Y-226313D01*
X1283613Y-225672D02*
X1276687Y-225672D01*
X1276687Y-225031D02*
X1283613Y-225031D01*
X1283613Y-224390D02*
X1276687Y-224390D01*
D38*
X1276467Y-231443D02*
X1283833Y-231443D01*
X1276467Y-231443D02*
X1276467Y-229157D01*
X1283833Y-229157D01*
X1283833Y-231443D01*
X1283833Y-230719D02*
X1276467Y-230719D01*
X1276467Y-229995D02*
X1283833Y-229995D01*
X1283833Y-229271D02*
X1276467Y-229271D01*
X1276467Y-236443D02*
X1283833Y-236443D01*
X1276467Y-236443D02*
X1276467Y-234157D01*
X1283833Y-234157D01*
X1283833Y-236443D01*
X1283833Y-235719D02*
X1276467Y-235719D01*
X1276467Y-234995D02*
X1283833Y-234995D01*
X1283833Y-234271D02*
X1276467Y-234271D01*
D37*
X1276687Y-241313D02*
X1283613Y-241313D01*
X1276687Y-241313D02*
X1276687Y-239287D01*
X1283613Y-239287D01*
X1283613Y-241313D01*
X1283613Y-240672D02*
X1276687Y-240672D01*
X1276687Y-240031D02*
X1283613Y-240031D01*
X1283613Y-239390D02*
X1276687Y-239390D01*
X1296387Y-241313D02*
X1303313Y-241313D01*
X1296387Y-241313D02*
X1296387Y-239287D01*
X1303313Y-239287D01*
X1303313Y-241313D01*
X1303313Y-240672D02*
X1296387Y-240672D01*
X1296387Y-240031D02*
X1303313Y-240031D01*
X1303313Y-239390D02*
X1296387Y-239390D01*
X1296387Y-236313D02*
X1303313Y-236313D01*
X1296387Y-236313D02*
X1296387Y-234287D01*
X1303313Y-234287D01*
X1303313Y-236313D01*
X1303313Y-235672D02*
X1296387Y-235672D01*
X1296387Y-235031D02*
X1303313Y-235031D01*
X1303313Y-234390D02*
X1296387Y-234390D01*
X1296387Y-231313D02*
X1303313Y-231313D01*
X1296387Y-231313D02*
X1296387Y-229287D01*
X1303313Y-229287D01*
X1303313Y-231313D01*
X1303313Y-230672D02*
X1296387Y-230672D01*
X1296387Y-230031D02*
X1303313Y-230031D01*
X1303313Y-229390D02*
X1296387Y-229390D01*
X1296387Y-226313D02*
X1303313Y-226313D01*
X1296387Y-226313D02*
X1296387Y-224287D01*
X1303313Y-224287D01*
X1303313Y-226313D01*
X1303313Y-225672D02*
X1296387Y-225672D01*
X1296387Y-225031D02*
X1303313Y-225031D01*
X1303313Y-224390D02*
X1296387Y-224390D01*
D39*
X367550Y-252800D03*
X382250Y-252800D03*
X367550Y-272000D03*
X382250Y-272000D03*
D40*
X340100Y-245000D02*
X331800Y-245000D01*
X331800Y-241700D01*
X340100Y-241700D01*
X340100Y-245000D01*
X340100Y-243955D02*
X331800Y-243955D01*
X331800Y-242910D02*
X340100Y-242910D01*
X340100Y-241865D02*
X331800Y-241865D01*
X331800Y-257700D02*
X340100Y-257700D01*
X331800Y-257700D02*
X331800Y-254400D01*
X340100Y-254400D01*
X340100Y-257700D01*
X340100Y-256655D02*
X331800Y-256655D01*
X331800Y-255610D02*
X340100Y-255610D01*
X340100Y-254565D02*
X331800Y-254565D01*
X331800Y-270400D02*
X340100Y-270400D01*
X331800Y-270400D02*
X331800Y-267100D01*
X340100Y-267100D01*
X340100Y-270400D01*
X340100Y-269355D02*
X331800Y-269355D01*
X331800Y-268310D02*
X340100Y-268310D01*
X340100Y-267265D02*
X331800Y-267265D01*
X331800Y-283100D02*
X340100Y-283100D01*
X331800Y-283100D02*
X331800Y-279800D01*
X340100Y-279800D01*
X340100Y-283100D01*
X340100Y-282055D02*
X331800Y-282055D01*
X331800Y-281010D02*
X340100Y-281010D01*
X340100Y-279965D02*
X331800Y-279965D01*
X409700Y-283100D02*
X418000Y-283100D01*
X409700Y-283100D02*
X409700Y-279800D01*
X418000Y-279800D01*
X418000Y-283100D01*
X418000Y-282055D02*
X409700Y-282055D01*
X409700Y-281010D02*
X418000Y-281010D01*
X418000Y-279965D02*
X409700Y-279965D01*
X409700Y-270400D02*
X418000Y-270400D01*
X409700Y-270400D02*
X409700Y-267100D01*
X418000Y-267100D01*
X418000Y-270400D01*
X418000Y-269355D02*
X409700Y-269355D01*
X409700Y-268310D02*
X418000Y-268310D01*
X418000Y-267265D02*
X409700Y-267265D01*
X409700Y-257700D02*
X418000Y-257700D01*
X409700Y-257700D02*
X409700Y-254400D01*
X418000Y-254400D01*
X418000Y-257700D01*
X418000Y-256655D02*
X409700Y-256655D01*
X409700Y-255610D02*
X418000Y-255610D01*
X418000Y-254565D02*
X409700Y-254565D01*
X409700Y-245000D02*
X418000Y-245000D01*
X409700Y-245000D02*
X409700Y-241700D01*
X418000Y-241700D01*
X418000Y-245000D01*
X418000Y-243955D02*
X409700Y-243955D01*
X409700Y-242910D02*
X418000Y-242910D01*
X418000Y-241865D02*
X409700Y-241865D01*
D41*
X1174101Y-267600D03*
X1174101Y-258100D03*
X1174101Y-248600D03*
X1148099Y-248600D03*
X1148099Y-267600D03*
D42*
X1469375Y-677665D02*
X1469375Y-686575D01*
X1465625Y-686575D01*
X1465625Y-677665D01*
X1469375Y-677665D01*
X1469375Y-685388D02*
X1465625Y-685388D01*
X1465625Y-684201D02*
X1469375Y-684201D01*
X1469375Y-683014D02*
X1465625Y-683014D01*
X1465625Y-681827D02*
X1469375Y-681827D01*
X1469375Y-680640D02*
X1465625Y-680640D01*
X1465625Y-679453D02*
X1469375Y-679453D01*
X1469375Y-678266D02*
X1465625Y-678266D01*
X1477375Y-677665D02*
X1477375Y-686575D01*
X1473625Y-686575D01*
X1473625Y-677665D01*
X1477375Y-677665D01*
X1477375Y-685388D02*
X1473625Y-685388D01*
X1473625Y-684201D02*
X1477375Y-684201D01*
X1477375Y-683014D02*
X1473625Y-683014D01*
X1473625Y-681827D02*
X1477375Y-681827D01*
X1477375Y-680640D02*
X1473625Y-680640D01*
X1473625Y-679453D02*
X1477375Y-679453D01*
X1477375Y-678266D02*
X1473625Y-678266D01*
X1485375Y-677665D02*
X1485375Y-686575D01*
X1481625Y-686575D01*
X1481625Y-677665D01*
X1485375Y-677665D01*
X1485375Y-685388D02*
X1481625Y-685388D01*
X1481625Y-684201D02*
X1485375Y-684201D01*
X1485375Y-683014D02*
X1481625Y-683014D01*
X1481625Y-681827D02*
X1485375Y-681827D01*
X1485375Y-680640D02*
X1481625Y-680640D01*
X1481625Y-679453D02*
X1485375Y-679453D01*
X1485375Y-678266D02*
X1481625Y-678266D01*
X1493375Y-677665D02*
X1493375Y-686575D01*
X1489625Y-686575D01*
X1489625Y-677665D01*
X1493375Y-677665D01*
X1493375Y-685388D02*
X1489625Y-685388D01*
X1489625Y-684201D02*
X1493375Y-684201D01*
X1493375Y-683014D02*
X1489625Y-683014D01*
X1489625Y-681827D02*
X1493375Y-681827D01*
X1493375Y-680640D02*
X1489625Y-680640D01*
X1489625Y-679453D02*
X1493375Y-679453D01*
X1493375Y-678266D02*
X1489625Y-678266D01*
X1493575Y-706825D02*
X1493575Y-715735D01*
X1489825Y-715735D01*
X1489825Y-706825D01*
X1493575Y-706825D01*
X1493575Y-714548D02*
X1489825Y-714548D01*
X1489825Y-713361D02*
X1493575Y-713361D01*
X1493575Y-712174D02*
X1489825Y-712174D01*
X1489825Y-710987D02*
X1493575Y-710987D01*
X1493575Y-709800D02*
X1489825Y-709800D01*
X1489825Y-708613D02*
X1493575Y-708613D01*
X1493575Y-707426D02*
X1489825Y-707426D01*
X1485375Y-706825D02*
X1485375Y-715735D01*
X1481625Y-715735D01*
X1481625Y-706825D01*
X1485375Y-706825D01*
X1485375Y-714548D02*
X1481625Y-714548D01*
X1481625Y-713361D02*
X1485375Y-713361D01*
X1485375Y-712174D02*
X1481625Y-712174D01*
X1481625Y-710987D02*
X1485375Y-710987D01*
X1485375Y-709800D02*
X1481625Y-709800D01*
X1481625Y-708613D02*
X1485375Y-708613D01*
X1485375Y-707426D02*
X1481625Y-707426D01*
X1477375Y-706825D02*
X1477375Y-715735D01*
X1473625Y-715735D01*
X1473625Y-706825D01*
X1477375Y-706825D01*
X1477375Y-714548D02*
X1473625Y-714548D01*
X1473625Y-713361D02*
X1477375Y-713361D01*
X1477375Y-712174D02*
X1473625Y-712174D01*
X1473625Y-710987D02*
X1477375Y-710987D01*
X1477375Y-709800D02*
X1473625Y-709800D01*
X1473625Y-708613D02*
X1477375Y-708613D01*
X1477375Y-707426D02*
X1473625Y-707426D01*
X1469375Y-706825D02*
X1469375Y-715735D01*
X1465625Y-715735D01*
X1465625Y-706825D01*
X1469375Y-706825D01*
X1469375Y-714548D02*
X1465625Y-714548D01*
X1465625Y-713361D02*
X1469375Y-713361D01*
X1469375Y-712174D02*
X1465625Y-712174D01*
X1465625Y-710987D02*
X1469375Y-710987D01*
X1469375Y-709800D02*
X1465625Y-709800D01*
X1465625Y-708613D02*
X1469375Y-708613D01*
X1469375Y-707426D02*
X1465625Y-707426D01*
D43*
X822737Y-232963D02*
X822737Y-213937D01*
X827163Y-213937D01*
X827163Y-232963D01*
X822737Y-232963D01*
X822737Y-231562D02*
X827163Y-231562D01*
X827163Y-230161D02*
X822737Y-230161D01*
X822737Y-228760D02*
X827163Y-228760D01*
X827163Y-227359D02*
X822737Y-227359D01*
X822737Y-225958D02*
X827163Y-225958D01*
X827163Y-224557D02*
X822737Y-224557D01*
X822737Y-223156D02*
X827163Y-223156D01*
X827163Y-221755D02*
X822737Y-221755D01*
X822737Y-220354D02*
X827163Y-220354D01*
X827163Y-218953D02*
X822737Y-218953D01*
X822737Y-217552D02*
X827163Y-217552D01*
X827163Y-216151D02*
X822737Y-216151D01*
X822737Y-214750D02*
X827163Y-214750D01*
X810037Y-213937D02*
X810037Y-232963D01*
X810037Y-213937D02*
X814463Y-213937D01*
X814463Y-232963D01*
X810037Y-232963D01*
X810037Y-231562D02*
X814463Y-231562D01*
X814463Y-230161D02*
X810037Y-230161D01*
X810037Y-228760D02*
X814463Y-228760D01*
X814463Y-227359D02*
X810037Y-227359D01*
X810037Y-225958D02*
X814463Y-225958D01*
X814463Y-224557D02*
X810037Y-224557D01*
X810037Y-223156D02*
X814463Y-223156D01*
X814463Y-221755D02*
X810037Y-221755D01*
X810037Y-220354D02*
X814463Y-220354D01*
X814463Y-218953D02*
X810037Y-218953D01*
X810037Y-217552D02*
X814463Y-217552D01*
X814463Y-216151D02*
X810037Y-216151D01*
X810037Y-214750D02*
X814463Y-214750D01*
X797337Y-213937D02*
X797337Y-232963D01*
X797337Y-213937D02*
X801763Y-213937D01*
X801763Y-232963D01*
X797337Y-232963D01*
X797337Y-231562D02*
X801763Y-231562D01*
X801763Y-230161D02*
X797337Y-230161D01*
X797337Y-228760D02*
X801763Y-228760D01*
X801763Y-227359D02*
X797337Y-227359D01*
X797337Y-225958D02*
X801763Y-225958D01*
X801763Y-224557D02*
X797337Y-224557D01*
X797337Y-223156D02*
X801763Y-223156D01*
X801763Y-221755D02*
X797337Y-221755D01*
X797337Y-220354D02*
X801763Y-220354D01*
X801763Y-218953D02*
X797337Y-218953D01*
X797337Y-217552D02*
X801763Y-217552D01*
X801763Y-216151D02*
X797337Y-216151D01*
X797337Y-214750D02*
X801763Y-214750D01*
X784637Y-213937D02*
X784637Y-232963D01*
X784637Y-213937D02*
X789063Y-213937D01*
X789063Y-232963D01*
X784637Y-232963D01*
X784637Y-231562D02*
X789063Y-231562D01*
X789063Y-230161D02*
X784637Y-230161D01*
X784637Y-228760D02*
X789063Y-228760D01*
X789063Y-227359D02*
X784637Y-227359D01*
X784637Y-225958D02*
X789063Y-225958D01*
X789063Y-224557D02*
X784637Y-224557D01*
X784637Y-223156D02*
X789063Y-223156D01*
X789063Y-221755D02*
X784637Y-221755D01*
X784637Y-220354D02*
X789063Y-220354D01*
X789063Y-218953D02*
X784637Y-218953D01*
X784637Y-217552D02*
X789063Y-217552D01*
X789063Y-216151D02*
X784637Y-216151D01*
X784637Y-214750D02*
X789063Y-214750D01*
X771937Y-213937D02*
X771937Y-232963D01*
X771937Y-213937D02*
X776363Y-213937D01*
X776363Y-232963D01*
X771937Y-232963D01*
X771937Y-231562D02*
X776363Y-231562D01*
X776363Y-230161D02*
X771937Y-230161D01*
X771937Y-228760D02*
X776363Y-228760D01*
X776363Y-227359D02*
X771937Y-227359D01*
X771937Y-225958D02*
X776363Y-225958D01*
X776363Y-224557D02*
X771937Y-224557D01*
X771937Y-223156D02*
X776363Y-223156D01*
X776363Y-221755D02*
X771937Y-221755D01*
X771937Y-220354D02*
X776363Y-220354D01*
X776363Y-218953D02*
X771937Y-218953D01*
X771937Y-217552D02*
X776363Y-217552D01*
X776363Y-216151D02*
X771937Y-216151D01*
X771937Y-214750D02*
X776363Y-214750D01*
X759237Y-213937D02*
X759237Y-232963D01*
X759237Y-213937D02*
X763663Y-213937D01*
X763663Y-232963D01*
X759237Y-232963D01*
X759237Y-231562D02*
X763663Y-231562D01*
X763663Y-230161D02*
X759237Y-230161D01*
X759237Y-228760D02*
X763663Y-228760D01*
X763663Y-227359D02*
X759237Y-227359D01*
X759237Y-225958D02*
X763663Y-225958D01*
X763663Y-224557D02*
X759237Y-224557D01*
X759237Y-223156D02*
X763663Y-223156D01*
X763663Y-221755D02*
X759237Y-221755D01*
X759237Y-220354D02*
X763663Y-220354D01*
X763663Y-218953D02*
X759237Y-218953D01*
X759237Y-217552D02*
X763663Y-217552D01*
X763663Y-216151D02*
X759237Y-216151D01*
X759237Y-214750D02*
X763663Y-214750D01*
X746537Y-213937D02*
X746537Y-232963D01*
X746537Y-213937D02*
X750963Y-213937D01*
X750963Y-232963D01*
X746537Y-232963D01*
X746537Y-231562D02*
X750963Y-231562D01*
X750963Y-230161D02*
X746537Y-230161D01*
X746537Y-228760D02*
X750963Y-228760D01*
X750963Y-227359D02*
X746537Y-227359D01*
X746537Y-225958D02*
X750963Y-225958D01*
X750963Y-224557D02*
X746537Y-224557D01*
X746537Y-223156D02*
X750963Y-223156D01*
X750963Y-221755D02*
X746537Y-221755D01*
X746537Y-220354D02*
X750963Y-220354D01*
X750963Y-218953D02*
X746537Y-218953D01*
X746537Y-217552D02*
X750963Y-217552D01*
X750963Y-216151D02*
X746537Y-216151D01*
X746537Y-214750D02*
X750963Y-214750D01*
X733837Y-213937D02*
X733837Y-232963D01*
X733837Y-213937D02*
X738263Y-213937D01*
X738263Y-232963D01*
X733837Y-232963D01*
X733837Y-231562D02*
X738263Y-231562D01*
X738263Y-230161D02*
X733837Y-230161D01*
X733837Y-228760D02*
X738263Y-228760D01*
X738263Y-227359D02*
X733837Y-227359D01*
X733837Y-225958D02*
X738263Y-225958D01*
X738263Y-224557D02*
X733837Y-224557D01*
X733837Y-223156D02*
X738263Y-223156D01*
X738263Y-221755D02*
X733837Y-221755D01*
X733837Y-220354D02*
X738263Y-220354D01*
X738263Y-218953D02*
X733837Y-218953D01*
X733837Y-217552D02*
X738263Y-217552D01*
X738263Y-216151D02*
X733837Y-216151D01*
X733837Y-214750D02*
X738263Y-214750D01*
X733837Y-307037D02*
X733837Y-326063D01*
X733837Y-307037D02*
X738263Y-307037D01*
X738263Y-326063D01*
X733837Y-326063D01*
X733837Y-324662D02*
X738263Y-324662D01*
X738263Y-323261D02*
X733837Y-323261D01*
X733837Y-321860D02*
X738263Y-321860D01*
X738263Y-320459D02*
X733837Y-320459D01*
X733837Y-319058D02*
X738263Y-319058D01*
X738263Y-317657D02*
X733837Y-317657D01*
X733837Y-316256D02*
X738263Y-316256D01*
X738263Y-314855D02*
X733837Y-314855D01*
X733837Y-313454D02*
X738263Y-313454D01*
X738263Y-312053D02*
X733837Y-312053D01*
X733837Y-310652D02*
X738263Y-310652D01*
X738263Y-309251D02*
X733837Y-309251D01*
X733837Y-307850D02*
X738263Y-307850D01*
X746537Y-307037D02*
X746537Y-326063D01*
X746537Y-307037D02*
X750963Y-307037D01*
X750963Y-326063D01*
X746537Y-326063D01*
X746537Y-324662D02*
X750963Y-324662D01*
X750963Y-323261D02*
X746537Y-323261D01*
X746537Y-321860D02*
X750963Y-321860D01*
X750963Y-320459D02*
X746537Y-320459D01*
X746537Y-319058D02*
X750963Y-319058D01*
X750963Y-317657D02*
X746537Y-317657D01*
X746537Y-316256D02*
X750963Y-316256D01*
X750963Y-314855D02*
X746537Y-314855D01*
X746537Y-313454D02*
X750963Y-313454D01*
X750963Y-312053D02*
X746537Y-312053D01*
X746537Y-310652D02*
X750963Y-310652D01*
X750963Y-309251D02*
X746537Y-309251D01*
X746537Y-307850D02*
X750963Y-307850D01*
X759237Y-307037D02*
X759237Y-326063D01*
X759237Y-307037D02*
X763663Y-307037D01*
X763663Y-326063D01*
X759237Y-326063D01*
X759237Y-324662D02*
X763663Y-324662D01*
X763663Y-323261D02*
X759237Y-323261D01*
X759237Y-321860D02*
X763663Y-321860D01*
X763663Y-320459D02*
X759237Y-320459D01*
X759237Y-319058D02*
X763663Y-319058D01*
X763663Y-317657D02*
X759237Y-317657D01*
X759237Y-316256D02*
X763663Y-316256D01*
X763663Y-314855D02*
X759237Y-314855D01*
X759237Y-313454D02*
X763663Y-313454D01*
X763663Y-312053D02*
X759237Y-312053D01*
X759237Y-310652D02*
X763663Y-310652D01*
X763663Y-309251D02*
X759237Y-309251D01*
X759237Y-307850D02*
X763663Y-307850D01*
X771937Y-307037D02*
X771937Y-326063D01*
X771937Y-307037D02*
X776363Y-307037D01*
X776363Y-326063D01*
X771937Y-326063D01*
X771937Y-324662D02*
X776363Y-324662D01*
X776363Y-323261D02*
X771937Y-323261D01*
X771937Y-321860D02*
X776363Y-321860D01*
X776363Y-320459D02*
X771937Y-320459D01*
X771937Y-319058D02*
X776363Y-319058D01*
X776363Y-317657D02*
X771937Y-317657D01*
X771937Y-316256D02*
X776363Y-316256D01*
X776363Y-314855D02*
X771937Y-314855D01*
X771937Y-313454D02*
X776363Y-313454D01*
X776363Y-312053D02*
X771937Y-312053D01*
X771937Y-310652D02*
X776363Y-310652D01*
X776363Y-309251D02*
X771937Y-309251D01*
X771937Y-307850D02*
X776363Y-307850D01*
X784637Y-307037D02*
X784637Y-326063D01*
X784637Y-307037D02*
X789063Y-307037D01*
X789063Y-326063D01*
X784637Y-326063D01*
X784637Y-324662D02*
X789063Y-324662D01*
X789063Y-323261D02*
X784637Y-323261D01*
X784637Y-321860D02*
X789063Y-321860D01*
X789063Y-320459D02*
X784637Y-320459D01*
X784637Y-319058D02*
X789063Y-319058D01*
X789063Y-317657D02*
X784637Y-317657D01*
X784637Y-316256D02*
X789063Y-316256D01*
X789063Y-314855D02*
X784637Y-314855D01*
X784637Y-313454D02*
X789063Y-313454D01*
X789063Y-312053D02*
X784637Y-312053D01*
X784637Y-310652D02*
X789063Y-310652D01*
X789063Y-309251D02*
X784637Y-309251D01*
X784637Y-307850D02*
X789063Y-307850D01*
X797337Y-307037D02*
X797337Y-326063D01*
X797337Y-307037D02*
X801763Y-307037D01*
X801763Y-326063D01*
X797337Y-326063D01*
X797337Y-324662D02*
X801763Y-324662D01*
X801763Y-323261D02*
X797337Y-323261D01*
X797337Y-321860D02*
X801763Y-321860D01*
X801763Y-320459D02*
X797337Y-320459D01*
X797337Y-319058D02*
X801763Y-319058D01*
X801763Y-317657D02*
X797337Y-317657D01*
X797337Y-316256D02*
X801763Y-316256D01*
X801763Y-314855D02*
X797337Y-314855D01*
X797337Y-313454D02*
X801763Y-313454D01*
X801763Y-312053D02*
X797337Y-312053D01*
X797337Y-310652D02*
X801763Y-310652D01*
X801763Y-309251D02*
X797337Y-309251D01*
X797337Y-307850D02*
X801763Y-307850D01*
X810037Y-307037D02*
X810037Y-326063D01*
X810037Y-307037D02*
X814463Y-307037D01*
X814463Y-326063D01*
X810037Y-326063D01*
X810037Y-324662D02*
X814463Y-324662D01*
X814463Y-323261D02*
X810037Y-323261D01*
X810037Y-321860D02*
X814463Y-321860D01*
X814463Y-320459D02*
X810037Y-320459D01*
X810037Y-319058D02*
X814463Y-319058D01*
X814463Y-317657D02*
X810037Y-317657D01*
X810037Y-316256D02*
X814463Y-316256D01*
X814463Y-314855D02*
X810037Y-314855D01*
X810037Y-313454D02*
X814463Y-313454D01*
X814463Y-312053D02*
X810037Y-312053D01*
X810037Y-310652D02*
X814463Y-310652D01*
X814463Y-309251D02*
X810037Y-309251D01*
X810037Y-307850D02*
X814463Y-307850D01*
X822737Y-307037D02*
X822737Y-326063D01*
X822737Y-307037D02*
X827163Y-307037D01*
X827163Y-326063D01*
X822737Y-326063D01*
X822737Y-324662D02*
X827163Y-324662D01*
X827163Y-323261D02*
X822737Y-323261D01*
X822737Y-321860D02*
X827163Y-321860D01*
X827163Y-320459D02*
X822737Y-320459D01*
X822737Y-319058D02*
X827163Y-319058D01*
X827163Y-317657D02*
X822737Y-317657D01*
X822737Y-316256D02*
X827163Y-316256D01*
X827163Y-314855D02*
X822737Y-314855D01*
X822737Y-313454D02*
X827163Y-313454D01*
X827163Y-312053D02*
X822737Y-312053D01*
X822737Y-310652D02*
X827163Y-310652D01*
X827163Y-309251D02*
X822737Y-309251D01*
X822737Y-307850D02*
X827163Y-307850D01*
M02*
