G04 EAGLE Gerber RS-274X export*
G75*
%MOMM*%
%FSLAX34Y34*%
%LPD*%
%INSoldermask Bottom*%
%IPPOS*%
%AMOC8*
5,1,8,0,0,1.08239X$1,22.5*%
G01*
G04 Define Apertures*
%ADD10C,0.853200*%
%ADD11C,0.655600*%
%ADD12C,0.705600*%
D10*
X1592778Y-321300D03*
X1592778Y-263500D03*
D11*
X1547045Y-659953D03*
X1487490Y-719508D03*
X1497185Y-729895D03*
X1595520Y-328938D03*
X1626683Y-328938D03*
X1572668Y-262458D03*
X1102460Y-235450D03*
X1089995Y-222985D03*
X1127390Y-259688D03*
X1078915Y-259688D03*
X1130160Y-309548D03*
X1511728Y-322013D03*
X409268Y251378D03*
X238913Y245145D03*
X580315Y-753440D03*
X664108Y-669648D03*
X53323Y-340018D03*
X53323Y-330323D03*
X331015Y-350405D03*
X283925Y-380183D03*
X537380Y-711198D03*
X23545Y-211213D03*
X14543Y-214675D03*
X905098Y-314395D03*
X814380Y-348328D03*
D12*
X178000Y209000D03*
X151000Y271000D03*
D11*
X1215338Y-317858D03*
X1132238Y-317858D03*
X1087918Y-354560D03*
X184898Y-211905D03*
X780448Y-211905D03*
X551230Y-590703D03*
X1475025Y-691115D03*
X1579593Y-635023D03*
X1512420Y-674495D03*
X164815Y-231988D03*
X209135Y-231988D03*
X304700Y-231988D03*
X810225Y-302623D03*
D12*
X1460000Y-668000D03*
X1312000Y-226000D03*
D11*
X1574053Y-629483D03*
X1497878Y-682805D03*
X193208Y-260380D03*
X818535Y-304700D03*
D12*
X1312000Y-317000D03*
D11*
X621865Y247915D03*
X615633Y254148D03*
X48475Y-363563D03*
X432813Y170355D03*
X124650Y-358715D03*
X726433Y-216753D03*
X1193178Y-220215D03*
X1157860Y-263150D03*
X853160Y-666878D03*
X632253Y-608708D03*
X793605Y-652335D03*
X649565Y-608708D03*
X863548Y-688345D03*
X830308Y-614940D03*
X773523Y-662723D03*
X801915Y-632945D03*
X872550Y-698040D03*
X890555Y-680035D03*
X389878Y249993D03*
X403035Y263150D03*
X466053Y245145D03*
X189053Y-127420D03*
X621173Y-706350D03*
X684190Y-643333D03*
X90718Y92103D03*
X168970Y170355D03*
X414808Y-440430D03*
X6233Y54708D03*
X245145Y175203D03*
X797068Y-685575D03*
X634330Y-788758D03*
X400265Y-281848D03*
X108030Y-363563D03*
X409960Y-287388D03*
X340710Y-249993D03*
X804685Y-667570D03*
X410653Y-632253D03*
X414115Y-275615D03*
X418963Y-572005D03*
X11080Y58170D03*
X40165Y-353868D03*
X421040Y144733D03*
X361485Y-572005D03*
X360793Y-626020D03*
X360793Y-579623D03*
X353868Y-243760D03*
X207058Y-385030D03*
X808840Y-683498D03*
X416885Y-638485D03*
X276308Y-563695D03*
X270075Y-626713D03*
X9003Y28393D03*
X43628Y-358715D03*
X354560Y-347635D03*
X828230Y-683498D03*
X1011743Y-702888D03*
X57478Y-211213D03*
X150273Y-211213D03*
X534610Y-595550D03*
X821998Y-683498D03*
X1070605Y-650258D03*
X96258Y-399573D03*
X817843Y-666185D03*
X523530Y-613555D03*
X189053Y-121188D03*
X121188Y-189053D03*
X124650Y-352483D03*
X738898Y-237528D03*
X1572668Y-295005D03*
X1572668Y-285310D03*
X116340Y-323398D03*
X1325780Y-295698D03*
X995123Y-186283D03*
X121188Y-319935D03*
X852468Y-567158D03*
X801523Y-526380D03*
X872550Y-691808D03*
X872550Y-628790D03*
X768675Y-667570D03*
X819228Y-632945D03*
X851083Y-652335D03*
X717430Y-603168D03*
X851083Y-658568D03*
X709120Y-608015D03*
X860085Y-296390D03*
X860085Y-220908D03*
D12*
X200056Y-207000D03*
X200056Y-225000D03*
X128056Y-225000D03*
X110056Y-225000D03*
X92056Y-225000D03*
X74056Y-225000D03*
X56056Y-225000D03*
X20056Y-225000D03*
X110056Y-243000D03*
X92056Y-243000D03*
X74056Y-243000D03*
X56056Y-243000D03*
X164056Y-261000D03*
X146056Y-261000D03*
X92056Y-261000D03*
X74056Y-261000D03*
X56056Y-261000D03*
X20056Y-261000D03*
X200056Y-279000D03*
X182056Y-279000D03*
X146056Y-279000D03*
X128056Y-279000D03*
X110056Y-279000D03*
X74056Y-279000D03*
X20056Y-279000D03*
X200056Y-297000D03*
X182056Y-297000D03*
X146056Y-387000D03*
X128056Y-387000D03*
X110056Y-387000D03*
X92056Y-387000D03*
X74056Y-387000D03*
X56056Y-387000D03*
X20056Y-351000D03*
X74056Y-351000D03*
X92056Y-351000D03*
X110056Y-351000D03*
X20056Y-333000D03*
X182056Y-333000D03*
X200056Y-333000D03*
X20056Y-315000D03*
X164056Y-315000D03*
X182056Y-315000D03*
X200056Y-315000D03*
X20056Y-297000D03*
X56056Y-297000D03*
X110056Y-297000D03*
X128056Y-297000D03*
X164056Y-297000D03*
M02*
